<?xml version="1.0" encoding="utf-8"?>
<!-- Generator: Adobe Illustrator 19.2.1, SVG Export Plug-In . SVG Version: 6.00 Build 0)  -->
<svg version="1.1" id="Layer_1" xmlns="http://www.w3.org/2000/svg" xmlns:xlink="http://www.w3.org/1999/xlink" x="0px" y="0px"
	 viewBox="0 0 579.6 76.7" style="enable-background:new 0 0 579.6 76.7;" xml:space="preserve">
<style type="text/css">
	.st0{fill:#272727;}
</style>
<path id="CATZWOLF_DIGITAL" class="st0" d="M0,38.4c0,21.2,17.2,38.3,38.3,38.3c18.1,0,33.8-12.7,37.5-30.5H50.4
	c-4.4,6.7-13.3,8.5-20,4.2c-6.7-4.4-8.5-13.3-4.2-20c2.7-4.1,7.2-6.5,12.1-6.5c4.8,0,9.3,2.4,11.9,6.4h25.5
	C71.4,9.7,51-3.6,30.3,0.9C12.6,4.7,0,20.3,0,38.4z M126.9,1.6H95.8L72.1,75.2h26.3l3.5-11.7h17.6l3.4,11.7h27.8L126.9,1.6z
	 M110.6,28.2l5.2,19.3h-10.4L110.6,28.2z M161.5,75.2h25V25H207V1.6h-65.8V25h20.4L161.5,75.2L161.5,75.2z M272.7,75.2V51.7h-27.9
	l27.9-28V1.6h-58.5V25h26.9l-27.8,29v21.1L272.7,75.2L272.7,75.2z M298.2,75.2h26.9l7.1-30.5l6.9,30.5h25.6l21.7-73.6h-25.7l-8.6,38
	l-8.8-38h-20.6l-8.2,38.3l-9.5-38.3h-27.4L298.2,75.2z M383.5,38.4c0,21.2,17.2,38.3,38.4,38.3s38.3-17.2,38.3-38.4
	C460.1,17.2,443,0,421.9,0C400.7,0,383.5,17.2,383.5,38.4L383.5,38.4z M407.4,38.4c0-8,6.4-14.4,14.4-14.4c8,0,14.4,6.4,14.4,14.4
	c0,0,0,0,0,0c0,8-6.4,14.4-14.4,14.4C413.9,52.8,407.4,46.4,407.4,38.4L407.4,38.4z M466.5,75.2h51.2V51.7h-26.2V1.6h-25L466.5,75.2
	L466.5,75.2z M524.5,75.2h25V55.6h29.1V33.1h-29.1V25h30.1V1.6h-55.1L524.5,75.2L524.5,75.2z"/>
</svg>
