<?xml version="1.0" encoding="utf-8"?>
<!-- Generator: Adobe Illustrator 19.2.1, SVG Export Plug-In . SVG Version: 6.00 Build 0)  -->
<svg version="1.1" id="Layer_1" xmlns="http://www.w3.org/2000/svg" xmlns:xlink="http://www.w3.org/1999/xlink" x="0px" y="0px"
	 viewBox="0 0 414.4 76.7" style="enable-background:new 0 0 414.4 76.7;" xml:space="preserve">
<style type="text/css">
	.st0{fill:#272727;}
</style>
<path id="CATZWOLF_DIGITAL" class="st0" d="M0,75.2h31.1c20.3,0.1,36.9-16.3,37-36.6c0.1-20.3-16.3-36.9-36.6-37c-0.1,0-0.3,0-0.4,0
	H0V75.2z M23.1,51.7V25h7.6c7.4-0.1,13.4,5.8,13.5,13.2c0.1,7.4-5.8,13.4-13.2,13.5c-0.1,0-0.2,0-0.3,0L23.1,51.7L23.1,51.7z
	 M74.4,75.2h25.1V1.6H74.4L74.4,75.2L74.4,75.2z M144.4,23c3.9,0,7.7,1.6,10.4,4.5h26.6C177,11.3,161.9,0,144.2,0
	c-21.2,0-38.4,17.1-38.4,38.3c0,21.2,17.1,38.4,38.3,38.4c21.2,0,38.4-17.1,38.4-38.3c0,0,0,0,0,0c0-1.6-0.1-4.9-0.2-6.3h-40.6V46
	h15.7c-1.9,4.5-6,8.6-12.9,8.6c-8,0-14.7-6.1-14.7-15.7C129.8,30.8,135,23,144.4,23L144.4,23z M188.8,75.2h25.1V1.6h-25.1V75.2z
	 M242.1,75.2h25V25h20.5V1.6h-65.8V25h20.4L242.1,75.2L242.1,75.2z M334.7,1.6h-31.1l-23.8,73.6h26.3l3.5-11.7h17.6l3.4,11.7h27.8
	L334.7,1.6z M318.3,28.2l5.2,19.3h-10.4L318.3,28.2z M363.2,75.2h51.2V51.7h-26.2V1.6h-25L363.2,75.2L363.2,75.2z"/>
</svg>
