<?xml version="1.0" encoding="utf-8"?>
<!-- Generator: Adobe Illustrator 21.0.0, SVG Export Plug-In . SVG Version: 6.00 Build 0)  -->
<svg version="1.1" id="icons" xmlns="http://www.w3.org/2000/svg" xmlns:xlink="http://www.w3.org/1999/xlink" x="0px" y="0px"
	 viewBox="0 0 73.3 82" style="enable-background:new 0 0 73.3 82;" xml:space="preserve">
<style type="text/css">
	.st0{fill:#FFFFFF;}
</style>
<g>
	<g>
		<g>
			<path class="st0" d="M48,60.7H22c-2.2,0-4-1.8-4-4v-20c0-2.2,1.8-4,4-4h26c2.2,0,4,1.8,4,4v20C52,58.9,50.2,60.7,48,60.7z
				 M22,34.7c-1.1,0-2,0.9-2,2v20c0,1.1,0.9,2,2,2h26c1.1,0,2-0.9,2-2v-20c0-1.1-0.9-2-2-2H22z"/>
		</g>
		<g>
			<path class="st0" d="M41,33.7h-2v-7c0-2.2-1.8-4-4-4c-2.2,0-4,1.8-4,4v7h-2v-7c0-3.3,2.7-6,6-6c3.3,0,6,2.7,6,6V33.7z"/>
		</g>
		<g>
			<path class="st0" d="M47,33.7h-2v-7c0-5.5-4.5-10-10-10c-5.5,0-10,4.5-10,10v7h-2v-7c0-6.6,5.4-12,12-12c6.6,0,12,5.4,12,12V33.7
				z"/>
		</g>
	</g>
	<g>
		<rect x="22" y="54.7" class="st0" width="26" height="2"/>
	</g>
	<g>
		<path class="st0" d="M35,46.7c-2.2,0-4-1.8-4-4s1.8-4,4-4c2.2,0,4,1.8,4,4S37.2,46.7,35,46.7z M35,40.7c-1.1,0-2,0.9-2,2
			c0,1.1,0.9,2,2,2s2-0.9,2-2C37,41.6,36.1,40.7,35,40.7z"/>
	</g>
	<g>
		<rect x="34" y="45.7" class="st0" width="2" height="5"/>
	</g>
</g>
</svg>
