<svg xmlns="http://www.w3.org/2000/svg" viewBox="0 0 747.42 83.73"><defs><style>.cls-1{fill:#272727;}</style></defs><title>baltika</title><g id="Слой_2" data-name="Слой 2"><g id="Logo"><path class="cls-1" d="M66.47,8.29c11.73,0,49.76,1.49,56,1.49,12.61,0,25-3.06,29.69-7.78-11.47,16.63-19.4,22.5-46.35,22.5C96.05,24.5,60.7,23,49.55,23,36,23,24.55,27,20.7,30.8,31.3,14.85,40.25,8.29,66.47,8.29Zm-66.62,50c3.85-3.86,15.3-7.78,28.85-7.78C39.85,50.49,75.2,52,85,52c27,0,34.89-5.88,46.35-22.51-4.72,4.73-17.08,7.79-29.69,7.79-6.28,0-44.31-1.5-56-1.5C19.4,35.75,10.45,42.31-.15,58.27ZM-21,85.73C-17.15,81.88-5.7,78,7.85,78c11.15,0,46.5,1.48,56.3,1.48,26.95,0,34.89-5.87,46.35-22.5-4.72,4.72-17.08,7.78-29.69,7.78-6.28,0-44.31-1.5-56-1.5C-1.45,63.21-10.4,69.77-21,85.73Z" transform="translate(21 -2)"/><path class="cls-1" d="M272.42,78.78H305c-3.82-2.9-4.66-6.25-5.43-11.67L290.9,3.21a56.41,56.41,0,0,1-18.47,3L235.73,68c-1.77,2.92-3.95,6.3-11.94,10.76h23.73c-5.69-3.37-6.75-5.82-3.94-11.58L250,56.44h25.86L277,67.74C277.63,74.49,277.1,76.1,272.42,78.78ZM253.29,50.84,271.55,20.1h.61l3.09,30.74ZM669,78.78c-5.68-3.37-6.74-5.82-3.93-11.58l6.39-10.76h25.86l1.14,11.3c.66,6.75.12,8.36-4.55,11h32.52c-3.81-2.9-4.66-6.25-5.42-11.67l-8.62-63.9a56.45,56.45,0,0,1-18.47,3L657.2,68a23.84,23.84,0,0,1-8.14,8.44c-4-4.94-10.67-17.18-20.45-43.72l18.95-14.87c11.92-9.37,21.5-12.7,21.5-12.7H637.6c3.21,5.64,3.47,6.44,3.47,7.9s-.68,3.47-4.15,6.12L609.34,40.43c3.14,11,9.35,27.73,15.07,38.35Zm5.78-27.94L693,20.1h.61l3.09,30.74Zm-335-45.67H394A17.83,17.83,0,0,0,386,16L373.53,67.3c-2,8.38,2.62,11.48,2.62,11.48H343.58a18.27,18.27,0,0,0,8.17-11.48l13.8-56.68H350.72A70.15,70.15,0,0,1,347.2,24c-17.13,49-20.3,55.46-30.75,55.46-7.84,0-10.18-6-10.18-12.22a14,14,0,0,0,6.22,1.48c7.45,0,13.45-1.33,28.05-44.7,1.45-4.31,1.88-6.38,1.86-9.64A16,16,0,0,0,339.79,5.17ZM172.68,15.53,160.07,67.3c-2.76,9.33-8.72,11.48-8.72,11.48h41c24.68,0,31.32-3.19,34.77-19,2.53-11.58-3.76-23-25.95-23H188.73l6.39-26.24h14.61c7.82,0,9,.59,10.93,3.86,1.53,2.57,8.1,13.8,8.1,13.8l5.42-23.11H169.72S174.36,8.15,172.68,15.53Zm8.78,51.21,5.8-23.81H194c11.29,0,15,3.94,12.32,16.11-2.57,11.71-6.18,14.61-16.5,14.61C181.76,73.65,180.29,71.52,181.46,66.74Zm415.37.56c-2,8.38,2.62,11.48,2.62,11.48H566.88a18.27,18.27,0,0,0,8.17-11.48l12.51-51.47c1.89-7.77-2.82-10.66-2.82-10.66h32.58a17.86,17.86,0,0,0-8,10.81Zm-46.3,0c-2,8.38,2.62,11.48,2.62,11.48H520.57a18.31,18.31,0,0,0,8.18-11.48l10.32-42.48-43.38,54H470.32A18.31,18.31,0,0,0,478.5,67.3L491,15.83c1.89-7.77-2.82-10.66-2.82-10.66h32.58a17.82,17.82,0,0,0-8,10.81L502,60.23,546.28,5.17H571A17.82,17.82,0,0,0,563,16Zm-77.28-39-7.86-13.35c-1.94-3.83-3.6-4.31-11.17-4.31h-4L436.5,67.3c-.9,3.77-1.19,7.46,2.86,11.48H406.41c5.88-3.74,7.2-6.56,8.44-11.48l13.73-56.68h-3.85c-7.59,0-9.28.42-13.24,4.14L396.81,28.28l6.48-23.11h75.38Z" transform="translate(21 -2)"/></g></g></svg>