<?xml version="1.0" encoding="utf-8"?>
<!-- Generator: Adobe Illustrator 22.0.1, SVG Export Plug-In . SVG Version: 6.00 Build 0)  -->
<svg version="1.1" id="Card" xmlns="http://www.w3.org/2000/svg" xmlns:xlink="http://www.w3.org/1999/xlink" x="0px" y="0px"
	 viewBox="0 0 147.1 20.7" style="enable-background:new 0 0 147.1 20.7;" xml:space="preserve">
<style type="text/css">
	.st0{fill:#272727;}
</style>
<path class="st0" d="M142.8,7c1.9,0,3.5,1.6,3.5,3.6s-1.6,3.6-3.5,3.6h-8.2c-1.9,0-3.5-1.6-3.5-3.6s1.6-3.6,3.5-3.6
	C134.6,7,142.8,7,142.8,7z"/>
<path class="st0" d="M33,7.7C33,7.1,33.6,7,34.2,7c1.9,0,3.6,1.2,3.6,1.2L39.5,5l-0.1-0.1c-1.5-1-3.4-1.6-5.1-1.6
	c-1.9,0-5.4,1.2-5.4,4.4c0,5,7.1,4.1,7.1,5.9c0,0.5-0.7,0.7-1.4,0.7c-2.2,0-4.2-1.5-4.2-1.5l-1.9,3l0.1,0.1c1.7,1.4,3.8,2.1,5.9,2.1
	c3.3,0,5.6-2.2,5.6-4.4C40.1,8.8,33,9.4,33,7.7 M123.4,10.6c0,2.1-1.3,3.6-3.2,3.6c-1.8,0-3.2-1.6-3.2-3.6l0,0
	c0-2.1,1.3-3.6,3.2-3.6C122,7,123.4,8.5,123.4,10.6L123.4,10.6z M123.2,3.5v1.6c-0.9-1.1-2.2-1.9-3.8-1.9c-3.5,0-6.5,3.3-6.5,7.3
	v0.1c0,4,2.9,7.3,6.5,7.3c1.6,0,3-0.8,3.8-1.9v1.6h4.1V3.5H123.2z M85.5,10.6c0,2.1-1.3,3.6-3.2,3.6c-1.8,0-3.2-1.6-3.2-3.6l0,0
	c0-2.1,1.3-3.6,3.2-3.6C84.1,7,85.5,8.5,85.5,10.6L85.5,10.6z M85.3,5.2c-0.9-1.1-2.2-1.9-3.8-1.9C78,3.3,75,6.6,75,10.6v0.1
	c0,4,2.9,7.3,6.5,7.3c1.6,0,2.9-0.8,3.8-1.9v1.6h4.1V3.5h-4.1V5.2z M23.3,10.6c0,2.1-1.3,3.6-3.2,3.6c-1.8,0-3.2-1.6-3.2-3.6l0,0
	C17,8.4,18.3,7,20.1,7C22,7,23.3,8.5,23.3,10.6L23.3,10.6z M23.2,5.2c-0.9-1.1-2.2-1.9-3.8-1.9c-3.5,0-6.5,3.3-6.5,7.3v0.1
	c0,4,2.9,7.3,6.5,7.3c1.6,0,2.9-0.8,3.8-1.9v1.6h4.1V3.5h-4.1V5.2z M107.2,3.3c-1.7,0-3.1,0.7-4.4,2c-0.8-1.3-2.1-2-3.8-2
	c-1.8,0-3,0.9-3.8,1.9V3.5h-4.1v14.1h4.1v-8C95.3,7.9,96,7,97.4,7c1.7,0,2.1,1.4,2.1,2.6v8h4.1v-8c0-1.7,0.8-2.6,2.1-2.6
	c1.7,0,2,1.4,2,2.6v8h4.1V8.5C111.9,5.2,110.2,3.3,107.2,3.3 M70.3,5.7V3.5h-4.1v14.1h4.1v-5.4c0-3.1,1.3-4.7,3.9-4.7h0.4V3.3h-0.2
	C72.6,3.2,71.2,4,70.3,5.7 M60.9,10.6c0,2.1-1.4,3.6-3.3,3.6c-1.9,0-3.3-1.6-3.3-3.6l0,0c0-2.1,1.4-3.6,3.3-3.6
	C59.5,7,60.9,8.5,60.9,10.6L60.9,10.6z M57.6,3.3c-2.1,0-3.9,0.8-5.3,2.1c-1.4,1.4-2.1,3.2-2.1,5.2v0.1c0,2,0.8,3.8,2.1,5.2
	c1.4,1.4,3.3,2.1,5.3,2.1c2.1,0,3.9-0.8,5.3-2.1c1.4-1.4,2.1-3.2,2.1-5.2l0,0c0-2-0.7-3.8-2.1-5.2C61.5,4,59.7,3.3,57.6,3.3 M46.4,0
	h-4.1v3.5h-1.7V7h1.7v6.6c0,3,1.2,4.3,4,4.3c1.2,0,2.2-0.3,3.1-0.8l0.1-0.1v-3.5l-0.3,0.1c-0.6,0.3-1.2,0.5-1.8,0.5
	c-0.7,0-1.1-0.3-1.1-1.2V7h3.2V3.5h-3.2L46.4,0L46.4,0z M10.3,12.8c-0.9,0.8-1.7,1.4-2.9,1.4c-1.9,0-3.2-1.5-3.2-3.6l0,0
	c0-2,1.4-3.6,3.1-3.6c1.3,0,2.1,0.6,2.9,1.5l0.1,0.1l2.6-2.8l-0.1-0.1C11.3,4,9.6,3.3,7.2,3.3C5.2,3.3,3.4,4,2,5.4
	c-1.3,1.4-2,3.2-2,5.2v0.1c0,2,0.7,3.8,2,5.1c1.3,1.4,3.1,2.1,5.1,2.1c2.9,0,4.4-1.2,5.6-2.6l0.1-0.1l-2.5-2.6V12.8z"/>
</svg>
