<?xml version="1.0" encoding="utf-8"?>
<!-- Generator: Adobe Illustrator 22.0.1, SVG Export Plug-In . SVG Version: 6.00 Build 0)  -->
<svg version="1.1" id="Слой_1" xmlns="http://www.w3.org/2000/svg" xmlns:xlink="http://www.w3.org/1999/xlink" x="0px" y="0px"
	 viewBox="0 0 2000 245" style="enable-background:new 0 0 2000 245;" xml:space="preserve">
<style type="text/css">
	.st0{fill:#272727;}
</style>
<g transform="translate(0.000000,245.000000) scale(0.100000,-0.100000)">
	<path class="st0" d="M0,1250V50h210h210v1200v1200H210H0V1250z"/>
	<path class="st0" d="M957,1854c-416-520-475-598-464-613c6-10,223-282,481-604l470-587h253c139,0,253,3,253,6s-211,270-468,592
		c-257,323-472,593-476,599c-4,9,162,224,468,608l476,595h-258h-258L957,1854z"/>
	<path class="st0" d="M2543,1593c3-774,5-865,21-932c62-262,198-443,419-557c135-69,251-96,422-97c174-1,273,21,425,96
		c93,45,116,62,200,146c81,81,103,111,143,191c26,52,57,131,70,175c22,79,22,87,25,958l3,877h-211h-210v-817c0-900,0-888-62-1004
		c-83-156-264-241-450-210c-98,16-167,49-233,112c-61,58-106,140-124,227c-7,36-11,313-11,872v820h-216h-215L2543,1593z"/>
	<path class="st0" d="M5132,1253l3-1198l208-3l207-2v334v334l238,5c275,6,349,19,497,92c197,96,331,252,404,470
		c80,239,61,496-51,725c-46,92-63,116-147,200c-81,81-111,103-191,143c-179,89-189,91-713,95l-457,3L5132,1253z M5983,2015
		c89-19,176-66,233-127c187-200,131-563-108-684c-92-47-137-54-355-54h-203v440v440h183C5852,2030,5938,2025,5983,2015z"/>
	<path class="st0" d="M7540,1250V50l208,2l207,3l3,1198l2,1197h-210h-210V1250z"/>
	<path class="st0" d="M8554,2418C8593,2327,9663,14,9668,8c5-5,1094,2337,1128,2426c5,14-19,16-218,16h-224l-339-735
		c-186-404-341-735-344-735s-116,240-251,533c-134,293-287,623-338,735l-95,202h-224h-223L8554,2418z"/>
	<path class="st0" d="M11382,1253l3-1198h210h210l3,1198l2,1197h-215h-215L11382,1253z"/>
	<path class="st0" d="M12652,1253l3-1198h210h210l3,331l2,331l233,6c190,4,247,9,315,26c104,26,215,77,297,136
		c328,234,431,744,229,1137c-39,76-65,110-144,189c-81,82-109,103-190,142c-181,89-190,91-713,95l-457,3L12652,1253z M13503,2015
		c236-50,377-257,339-501c-28-178-141-303-317-350c-34-9-115-14-247-14h-198v440v440h178C13373,2030,13459,2025,13503,2015z"/>
	<path class="st0" d="M15992,1253l3-1198h210h210l3,499l2,498l400-501l399-501h256c202,0,255,3,249,12c-5,7-184,234-400,504
		l-391,491l85,22c225,55,395,188,482,376c53,113,65,172,64,305c-1,95-6,129-27,195c-72,221-243,383-492,466c-69,23-77,24-563,27
		l-492,3L15992,1253z M16964,2021c117-46,179-141,180-272c0-132-62-223-184-271c-50-20-79-22-297-26l-243-4v302v302l243-4
		C16886,2044,16910,2042,16964,2021z"/>
	<path class="st0" d="M18273,1593c4-935,2-902,63-1071c69-192,236-364,432-446c120-51,223-70,377-69c149,1,229,16,355,67
		c199,80,362,245,439,444c61,159,61,160,61,1088v844h-210h-210v-817c0-900,0-888-62-1004c-60-115-166-187-305-210
		c-185-30-372,56-456,210c-58,105-57,92-57,993v828h-216h-215L18273,1593z"/>
	<path class="st0" d="M14660,265V50h220h220v215v215h-220h-220V265z"/>
</g>
</svg>
