<?xml version="1.0" encoding="utf-8"?>
<!-- Generator: Adobe Illustrator 22.0.1, SVG Export Plug-In . SVG Version: 6.00 Build 0)  -->
<svg version="1.1" id="Слой_1" xmlns="http://www.w3.org/2000/svg" xmlns:xlink="http://www.w3.org/1999/xlink" x="0px" y="0px"
	 viewBox="0 0 177 79" style="enable-background:new 0 0 177 79;" xml:space="preserve">
<style type="text/css">
	.st0{fill:#272727;}
</style>
<title>Lexus</title>
<desc>Created with Sketch.</desc>
<g id="Page-1">
	<g id="Lexus">
		<path id="Fill-2" class="st0" d="M90.3,4.2c-3.6,4.4-13.8,18.7-15,20.5c-2.2,3.5-2.4,5.3-2.5,6.4c-0.1,1.1-0.1,3.1,1.8,4.8
			c3.1,2.7,7.3,2.3,11.1,2.3H117c1.3,0,1.7-0.4,2.5-1.4c2.5-3.8,3.6-8,3.6-11.7c0-8-5.2-18-18.2-22.5l-1.5,2.1
			c10.4,4.9,14.7,11.4,14.7,20.4c0.1,2.4-0.6,5-2.2,7.4H85.5c-1.8,0-2.1-2.1-1.4-3.2c2.7-4.8,5.5-9,8.7-13.4c3.1-4.1,6.1-8,9.3-12
			c0.9-1.1,0.3-2.2-1.4-2.5c-3.6-0.7-7.3-1.3-11.8-1.3c-25,0-34.1,14.3-34.1,25c0,11.5,9.2,24.9,34.2,24.9
			c13.9,0,22.9-4.5,28.2-10.2h-5.3c-4.6,4.2-12.5,7.2-22.9,7.2c-21.2,0-29-11.9-29-22.1c0.2-9.1,8.5-21.7,29.5-22.2
			C90.2,2.8,90.9,3.5,90.3,4.2"/>
		<path id="Fill-3" class="st0" d="M165.4,70.1c1.3,0.2,2.2,1.2,2.2,2.3c0,1.3-1.2,2.4-2.6,2.4h-26.8V57.2h-7.9v17.6h-14.5
			c-3.9,0-4.7-2.4-4.7-4.6V57.1H97.9c-1.3,0.9-2.5,1.8-3.9,2.7l-7.8,4.8l-10.1-7.4H60.4v4.4h5.7v-2.4l13.4,9.6l-9.1,5.7h-9.9v4.4
			h11.5c1.2-0.8,2.4-1.7,3.7-2.5l8-4.9l10.2,7.2h11.6L90,67.3l7.8-5.1c1.7-1.1,3.4-2,5.1-3v11.6c0,4.9,1.3,8.3,11.1,8.3l55.5-0.1
			c4.3,0.1,7-2.9,7-6.5c0-3.6-3.2-6.5-7-6.5h-20c0.3-2.4,2.4-4.5,4.5-4.5h20.3l-0.1-4.2h-21.5c-6.8,0-12.3,5.6-12.4,12.2
			c0,0.5,0.3,0.7,0.8,0.7L165.4,70.1z M60.4,70h3.9v-4.5h-3.9V70z M60.4,57.2H45.5c-4,0-7.1,1.1-9.4,2.9c-4.1,3.3-5.4,6.7-5.4,8.2
			h5.4c-2.4,1.8-3.9,3.9-4.8,6.3H13.7c-3.2,0-5.2-2.2-5.2-4.4V57H0.8v13.6c0,4.9,4.7,8.3,12.1,8.3h47.5v-4.4H41.5
			c0.1-2.2,2.5-4.5,4.7-4.5h14.2v-4.5H41.3c-0.3-1.3,2.2-3.9,4.1-3.9h15V57.2z"/>
	</g>
</g>
</svg>
