<?xml version="1.0" encoding="utf-8"?>
<!-- Generator: Adobe Illustrator 22.0.1, SVG Export Plug-In . SVG Version: 6.00 Build 0)  -->
<svg version="1.1" id="Слой_1" xmlns="http://www.w3.org/2000/svg" xmlns:xlink="http://www.w3.org/1999/xlink" x="0px" y="0px"
	 viewBox="0 0 419.5 297.6" style="enable-background:new 0 0 419.5 297.6;" xml:space="preserve">
<style type="text/css">
	.st0{fill:#272727;}
</style>
<g id="Layer_x0020_1">
	<g id="_514622712">
		<g>
			<path class="st0" d="M129.9,183.9c-7.3-4.5-9.6-10.2-20.7-14.7c-11-14.4-15.3-32.3-15.3-50.3c0-13.1,2.3-26.2,5.8-37.9l0,0
				l11.1,22.1c-0.6,4.9-0.9,10.2-0.9,15.9c0,73.1,48.5,87.9,99.7,87.8c51.2,0.1,99.7-14.6,99.7-87.8c0-7.5-0.5-14.4-1.5-20.7
				l7.9-16.3c4.2,10.4,6.5,23.8,6.2,37.2c-0.4,21.6-7.4,43.5-23.7,53.8l0,0l-2.7,3.9l-2.8,3.5l-3,3.3l-3.2,3.1l-3.3,2.8l-3.5,2.6
				l-3.7,2.4l-3.8,2.2l-4,1.9l-4,1.7l-4.2,1.6l-4.2,1.4l-4.3,1.2l-4.5,1l-4.5,0.9l-4.6,0.7l-4.7,0.6l-4.7,0.4l-4.8,0.4l-4.8,0.2
				l-4.8,0.1h-9.6l-4.8-0.1l-4.8-0.2l-4.8-0.4l-4.7-0.4l-4.7-0.6l-4.6-0.7l-4.5-0.9l-4.5-1l-4.3-1.2l-4.2-1.4l-4.2-1.6l-4-1.7
				l-4-1.9l-3.8-2.2l-3.7-2.4l-3.5-2.6l-3.3-2.8l-2.7-2.7L129.9,183.9z M99.9,52.1l-1.5-1.5C85.2,66.5,77,88.5,77,118.9
				c0,92.2,75.3,107.2,132.7,107.2s132.7-15,132.7-107.2c0-30.5-8.2-52.5-21.3-68.3l0,0l-1.5,1.4c-0.3,8.1-1.7,16.4-2.8,24.3
				c5.8,12.3,8.4,27,8.8,42.6c0.9,45.9-22.5,94-115.8,97.1c-58.7-0.4-95.6-18.6-110.7-56.4c-10-6.3-14.8-18-19.5-29.4l0,0l-0.2-3
				l-0.2-8.4l0.2-8.3l0.6-7.8l1-7.4l1.4-7l1.8-6.6l2.1-6.2l2.4-5.8l2.7-5.5l3-5.1l2.9-4c1.1,7.8,2.4,18.1,4.8,20.1
				c29.7,24.9,82,21.7,107.1,72c27.4-55.7,75.6-48.7,105.3-73.7l0,0l2.7-23.9c-34.6,37.4-81.7,24.8-108.1,80.8
				C181,75.5,134.6,89.1,99.9,52.1L99.9,52.1L99.9,52.1z M123.1,65.5c17.8-27.6,51.5-34.4,86.5-34.3c34.4-0.1,67.6,6.6,85.7,33.3
				l0,0l21.5-16.2l0,0l1.3-0.9c-26.9-29.2-71.4-35.5-108.4-35.5c-37.8,0-83.4,6.5-110.1,37.4l0,0l0.5,0.4l0,0l0.7,0.6l0.4,0.3l0,0
				c5.8,5.6,12.1,11.6,18.6,15C120.9,65.9,122,66.1,123.1,65.5L123.1,65.5L123.1,65.5z M314.8,46.9l-9.6,6
				c-28.7-25.2-59.2-31.4-95.5-31.1c-36.7-0.2-69,6.3-97.2,33.2l0,0l-9.9-6l2.8-3l4.1-3.8l4.3-3.5l4.5-3.2l4.7-3l4.8-2.7l5-2.4
				l5.2-2.2l5.3-1.9l5.4-1.7l5.5-1.5l5.5-1.3l5.6-1.2l5.6-0.9l5.6-0.8l5.6-0.6l5.6-0.5l5.6-0.4l5.5-0.3l5.5-0.1l5.4-0.1l5.4,0.1
				l5.5,0.1l5.5,0.3l5.6,0.4l5.6,0.5l5.6,0.6l5.6,0.8l5.6,0.9l5.6,1.2l5.5,1.3l5.5,1.5l5.4,1.7l5.3,1.9l5.1,2.2l5,2.4l4.8,2.7l4.7,3
				l4.5,3.2l4.3,3.5l4.1,3.8L314.8,46.9L314.8,46.9z M209.4,164.3c-12.2-26.3-25.6-38.2-46.2-46.7l0,0L112,100.4L105,80.9
				c12.6,9.6,31.2,16.2,48.9,23c27.3,10.4,42.1,23.7,55.6,50.8l0,0L209.4,164.3L209.4,164.3z M209.4,164.3
				c12.2-26.3,25.6-39.9,46.2-48.4l0,0l50.6-18.1l7.1-18.9c-12.6,9.6-32.5,17-50.3,23.8c-27.3,10.4-40.2,24.8-53.6,51.9l0,0V164.3z
				 M298.6,81.6l3.1-1.7l3-1.7l3-1.9l2.9-2l2.1-1.7l2-17.1l-2.5,2.3l-3.5,2.9l-3.5,2.7l-3.6,2.4l-3.6,2.3l-3.7,2.1l-3.7,1.9
				l-3.7,1.8l-7.4,3.4c-6.1,2.6-12.2,5.1-18.4,7.7l0,0l-7.1,3.3l-3.5,1.8l-3.2,1.7c-8.4,7.1-12.6,14-14.3,21.4l0,0l2.3-1.9l3.5-2.6
				l3.5-2.4l3.5-2.2l3.6-2l3.6-1.9l3.6-1.7l3.7-1.7l7.3-3c7.1-2.7,14.2-5.3,21.2-8.1l0,0l3.4-1.4l3.3-1.4L298.6,81.6L298.6,81.6z
				 M237.4,98.3l-0.4,0.3l-3.2,2.5l-3.1,2.8l-3,3l-0.9,0.9c-3,5.5-4.2,10.5-4.1,15.4l0,0l2.5-2.7l3.3-3.3l1.4-1.3
				c0.8-5.8,3.3-11.6,7.5-17.6l0,0H237.4z M163.4,89.7L163.4,89.7l-7.2-3.2c-6.1-2.5-12.2-4.9-18.4-7.4l0,0l-7.4-3.2l-3.7-1.7
				l-3.7-1.9l-3.7-2l-3.6-2.2l-3.6-2.4l-3.5-2.6l-3.5-2.9l-3.5-3.1l-2.4-2.4c0.4,3,0.9,6,1.4,8.9l0,0l0.6,3l0.6,2.7l0.6,2.2l0.6,1.5
				l0.6,0.7l2.6,2.1l2.9,2l3,1.9l3.1,1.8l3.2,1.7l3.3,1.7l3.4,1.6l7.1,3c7.4,3,14.8,5.8,22.2,8.8l0,0l7.6,3.2l3.7,1.7l3.7,1.9l3.7,2
				l3.7,2.2l1.9,1.2C174.7,103.5,169.2,96.5,163.4,89.7L163.4,89.7L163.4,89.7z"/>
			<path class="st0" d="M179.1,273.4h-14.8h-0.6l-0.6-0.1l-0.5-0.2l-0.5-0.3l-0.4-0.4l-0.4-0.4l-0.3-0.5l-0.1-0.6l-0.1-0.6l0.1-0.6
				l0.1-0.5l0.3-0.5l0.4-0.4l0.4-0.4l0.5-0.3l0.5-0.2l0.6-0.1h0.6h14.8V273.4L179.1,273.4z M231.1,239.2h-33.6v13.6h16.9
				L231.1,239.2L231.1,239.2z M208.4,285.9H242V272h-15.6L208.4,285.9L208.4,285.9z M260.9,272.1v-19h11.7h1l1,0.1l0.9,0.1l0.9,0.2
				l0.6,0.2l0.6,0.3l0.5,0.4l0.4,0.5l0.4,0.6l0.3,0.8l0.3,0.9l0.2,0.9l0.1,1l0.1,1.1l0.1,1.2v1.2l-0.1,1.2l-0.1,1.1l-0.1,1.1l-0.2,1
				l-0.3,0.9l-0.3,0.9l-0.4,0.8l-0.4,0.6l-0.4,0.5l-0.4,0.4l-0.6,0.3l-0.6,0.2l-0.6,0.2l-0.7,0.1l-0.8,0.1h-0.9h-0.9h-11.7
				L260.9,272.1z M328.5,267.2v6.2H314h-0.6l-0.6-0.1l-0.6-0.3l-0.5-0.4l-0.4-0.5l-0.3-0.6l-0.2-0.6l-0.1-0.6l0.1-0.6l0.2-0.6
				l0.3-0.6l0.4-0.5l0.5-0.4l0.6-0.3l0.6-0.1h0.6L328.5,267.2L328.5,267.2z M245.1,285.9h35.6l1.4-0.1l1.3-0.2l1.3-0.3l1.3-0.4
				l1.2-0.6l1.2-0.6l1.1-0.8l1.1-0.9l1-1l0.9-1.1l0.6-0.9l0.6-1l0.5-1l0.4-1.1l0.4-1.1l0.3,1l0.4,0.9l0.4,0.9l0.5,0.9l0.5,0.9
				l0.6,0.9l0.6,0.8l0.7,0.7l0.8,0.6l0.8,0.6l0.9,0.6l0.9,0.5l0.9,0.4l0.9,0.4l1,0.3l1,0.2l1,0.1l1,0.1h1h35.1v-31.6V253l-0.1-1.1
				l-0.2-1.1l-0.3-1.1l-0.4-1l-0.4-1l-0.5-0.9l-0.6-0.9l-0.6-0.9l-0.7-0.9l-0.7-0.8l-0.8-0.7L338,242l-0.9-0.6l-0.9-0.5l-1-0.4
				l-1-0.4l-1-0.3l-1.1-0.2l-1.1-0.1l-1.1-0.1h-32.3V252h26.1h0.6l0.6,0.3l0.5,0.4l0.4,0.6l0.1,0.6l-0.1,0.6l-0.3,0.6l-0.5,0.4
				l-0.6,0.3l-0.6,0.1H309l-1.1,0.1l-1.1,0.1l-1.1,0.2l-1,0.3l-1,0.4l-1,0.4l-0.9,0.5l-0.9,0.6l-0.9,0.6l-0.9,0.7l-0.8,0.8l-0.7,0.8
				l-0.6,0.9l-0.6,0.9l-0.1-3.7l-0.1-1.1l-0.1-1.2l-0.1-1.4l-0.1-1.4l-0.2-1.4l-0.3-1.4l-0.3-1.2l-0.4-1.1l-0.4-1.1l-0.5-1.1
				l-0.6-0.9l-0.6-0.9l-0.7-0.9l-0.8-0.8l-0.8-0.7l-0.9-0.6l-0.9-0.6l-0.9-0.6l-1-0.5l-1-0.4l-1.1-0.4l-1.1-0.3l-1.1-0.2l-1.1-0.1
				h-1.2h-42.8l-42.6,33.9v-19.1l-0.1-1.2l-0.1-1.2l-0.3-1.2l-0.4-1.2l-0.4-1.2l-0.5-1.1l-0.6-1.1l-0.7-1l-0.8-0.9l-0.9-0.9
				l-0.9-0.8l-1-0.7l-1-0.6l-1.1-0.6l-1.2-0.4l-1.2-0.4l-1.2-0.3l-1.2-0.2l-1.2-0.1h-1.2h-30.7v12.8h28.4h0.4l0.4,0.1l0.4,0.1
				l0.4,0.3l0.3,0.3l0.2,0.4l0.1,0.4l0.1,0.4l-0.1,0.4l-0.1,0.4l-0.2,0.4l-0.3,0.3l-0.4,0.3l-0.4,0.1l-0.4,0.1h-0.4h-17.2l-1.2,0.1
				l-1.2,0.1l-1.2,0.2l-1.2,0.4l-1.1,0.4l-1.1,0.5l-1,0.6l-1,0.6l-0.9,0.7l-0.9,0.9l-0.8,0.9l-0.7,0.9l-0.6,1l-0.6,1.1v-9.9v-1.7
				l-0.2-1.7l-0.4-1.7l-0.6-1.7l-0.8-1.5l-1-1.4l-1.2-1.3l-1.3-1.2l-1.4-1l-1.5-0.9l-1.6-0.6l-1.7-0.5l-1.7-0.3l-1.7-0.1H75.2v46.7
				h15.8v-32.6h11.6v32.6h15.4v-32.6h7.5l0.7,0.1l0.7,0.2l0.6,0.3l0.6,0.4l0.5,0.5l0.4,0.6l0.3,0.6l0.1,0.7v0.7v28.3h16.1v-8.3
				l0.6,1.1l0.6,1l0.7,0.9l0.8,0.9l0.9,0.9l0.9,0.7l1,0.6l1,0.6l1.1,0.5l1.2,0.4l1.2,0.3l1.2,0.2l1.2,0.1h1.2h42.3l43.5-34.5v34.5
				V285.9z"/>
		</g>
	</g>
</g>
</svg>
