<?xml version="1.0" encoding="utf-8"?>
<!-- Generator: Adobe Illustrator 22.0.1, SVG Export Plug-In . SVG Version: 6.00 Build 0)  -->
<svg version="1.1" id="Слой_1" xmlns="http://www.w3.org/2000/svg" xmlns:xlink="http://www.w3.org/1999/xlink" x="0px" y="0px"
	 viewBox="0 0 1920 594" style="enable-background:new 0 0 1920 594;" xml:space="preserve">
<style type="text/css">
	.st0{fill:#272727;}
</style>
<g>
	<path class="st0" d="M718.8,27.5c8.4,3.6,11.5,9.3,10,18.5c-0.6,3.5-2.7,6-5.7,7.9c-2.9,1.8-6.1,2.8-9.3,3.6
		c-11.1,2.7-21.1,7.8-30.4,14.3c-9.2,6.4-13.4,16-15.7,26.5c-3.5,15.9-3.4,32-2.8,48.1c0.4,14.2,0.7,28.4,1,42.6
		c0.7,27.4,1.3,54.8,2,82.3c0.4,17.2,0.9,34.5,1.3,51.7c0.7,27.2,1.3,54.4,2,81.6c0.4,16,0.7,32,1.4,48c0.6,13.5,1.4,27.1,5.9,40
		c7.7,22.3,23.2,36,46.4,40.8c0.9,0.2,1.7,0.4,2.6,0.6c13.3,3,16.2,11,11.3,23.8c-2.1,5.4-7.2,6.6-12.4,7.1
		c-7.8,0.7-15.4-0.7-23.1-1.6c-14.3-1.6-28.7-3.2-43.1-3.9c-27.4-1.5-54.6,0-81.8,3.3c-9,1.1-17.9,2.8-27,2.3
		c-5.5-0.3-10.5-2-12.8-7.5c-2.5-6.2-2.3-12.2,2.4-17.6c3.1-3.5,6.9-6.1,10.8-8.4c8.3-4.8,16.3-10.1,23.4-16.7
		c7.7-7.2,11.2-16.2,12.4-26.4c2.1-18.9,0.9-37.8,0.1-56.7c-0.8-20-1.5-40-2.3-60.1c-1.1-28.1-2.2-56.1-3.4-84.2
		c-0.9-22.1-1.8-44.3-2.7-66.4c-0.2-4.7-0.3-9.4-1.8-13.9c-0.8-2.5-1-6-3.9-6.5c-2.8-0.4-4.4,2.8-5.9,4.9
		c-4.2,5.7-7.2,12.1-10.2,18.4C508,330.2,458.4,436.5,408.8,542.8c-1.7,3.5-3.3,7.1-5.6,10.3c-5.5,7.7-15.6,7.9-21.4,0.4
		c-3.8-4.9-5.6-10.9-8-16.5c-46-107.2-92-214.4-137.9-321.6c-1.4-3.4-2.9-6.8-5.2-9.7c-1.3-1.7-3-3.4-5.3-2.9
		c-2.2,0.5-2.7,2.7-3.1,4.7c-1.7,7.6-1.8,15.3-2.1,23c-0.9,27.5-1.8,55-2.7,82.6c-0.7,20-1.2,40.1-2.1,60.1
		c-1,22.8-1.5,45.7-1.3,68.5c0.1,16.1,0.6,32.2,4.7,48c4,15.5,13,26,28,32.7c9.4,4.2,18.7,8.7,28.5,12.1c1.4,0.5,2.6,1.3,3.8,2
		c8.6,5.2,9.4,15,6.4,22.4c-2,4.9-6.6,5.6-11.1,6c-8.1,0.7-16.1-0.6-24.1-1.7c-26.9-3.9-53.8-5.7-81-3.2c-13.5,1.3-26.9,3-40.3,4.8
		c-10.9,1.4-18.4-6.5-16.4-17.3c0.5-2.5,2.2-4.4,3.9-6.1c3-3,6.3-5.7,10-7.9c22.6-13.5,35.2-33.9,41.3-59
		c4.5-18.5,7.2-37.3,8.8-56.2c2.2-25.8,2.9-51.6,4.1-77.4c1.1-24.1,2.2-48.3,3.4-72.4c1.5-30.2,3.6-60.4,3.1-90.6
		c-0.3-21.5-1-43-6-64c-3.6-15.3-9.9-29.3-20.8-41.1c-7.5-8.1-17.3-12-27.6-14.9c-2.9-0.8-5.9-1.4-8.6-2.8c-5.1-2.5-8.7-6.2-9-12.3
		c-0.3-6.7,1-12.4,8.1-15.2c2.9,0,5.8,0,8.7,0c2.1,1,4.4,1,6.5,1.3c22.9,2.5,45.9,4.2,69,2.1c7.4-0.7,14.8-1.4,22-3.4
		c2.7,0,5.4,0,8.1,0c4.5,1.7,8.2,4.2,10.8,8.5c3,5.1,5.6,10.4,8,15.8c52.3,119.2,104.6,238.4,157,357.6c1.3,3.1,2.6,6.2,4.7,8.8
		c2.6,3.3,5.9,3.8,9.4,1.6c2.8-1.7,4.5-4.2,5.9-7.1c41.7-88.9,83.4-177.8,125-266.8c16.5-35.2,32.9-70.5,49.4-105.8
		c2.7-5.7,6.3-10.5,12.6-12.7c2.9,0,5.8,0,8.7,0c7.8,1.8,15.7,3.5,23.7,4c13.5,0.8,27-0.3,40.4-2.2c4-0.6,8.1-0.4,12-1.8
		C709.9,27.5,714.4,27.5,718.8,27.5z"/>
	<path class="st0" d="M1907.5,321.4c-1.4,1.7-1.2,3.9-1.8,5.8c-4.4,15.9-14.2,28.2-26,39.1c-16.7,15.3-36.2,26.5-56.5,36.3
		c-31.1,15.1-63.6,26.4-96.6,36.2c-42.7,12.7-86.1,22.6-129.8,31.2c-30.5,6-61.1,11.2-91.8,15.9c-23.7,3.6-47.4,6.8-71.1,9.7
		c-27.4,3.4-54.9,6.5-82.4,9.1c-24.6,2.4-49.2,4.6-73.9,6.3c-10.8,0.7-21.6,1.6-32.5,2.5c-2.2,0.2-3.6-0.4-4.9-2.3
		c-5.5-7.6-13.5-8.4-21.9-7.4c-6.6,0.7-13.1,1.8-19.7,0.4c-7-1.5-12.2-5.6-16.9-11.3c6-1.1,11.7-0.8,17.3-1.3
		c16.3-1.2,32.6-1.8,48.9-3c19-1.3,37.9-2.9,56.9-4.5c16.1-1.3,32.1-2.7,48.1-4.3c17.8-1.8,35.6-3.8,53.4-5.8
		c15.4-1.8,30.9-3.6,46.3-5.6c16.2-2.1,32.4-4.3,48.5-6.8c19.2-3,38.4-6.1,57.6-9.4c28.9-5.1,57.7-10.8,86.3-17.4
		c40.9-9.5,81.3-20.4,120.7-34.9c27.6-10.1,54.6-21.5,79.2-37.8c11.8-7.8,22.7-16.8,30.8-28.7c9.7-14.4,9.4-28.9-0.7-43
		c-9.7-13.6-22.8-23.3-36.8-31.8c-26.8-16.4-55.7-28.1-85.3-38.2c-46-15.8-93-27.4-140.6-37.3c-34.9-7.2-70-13.4-105.2-18.8
		c-27.7-4.2-55.5-8-83.4-11.4c-23.4-2.9-46.9-5.5-70.4-7.8c-21.4-2.1-42.8-3.8-64.2-5.6c-30.1-2.5-60.2-4.6-90.4-6.1
		c-13.3-0.7-26.6-1.4-39.9-2c-2.5-0.1-3.9-0.6-4.5-3.5c-1.4-7.2-3.8-14.2-6.5-21.2c3.6,0,7-0.2,10.3,0c26.6,1.4,53.2,2.6,79.7,4.5
		c19.9,1.5,39.7,2.6,59.6,4.3c21.1,1.7,42.1,3.7,63.2,5.9c21.4,2.1,42.7,4.4,64.1,6.9c21.2,2.5,42.4,5.4,63.5,8.5
		c21.3,3.1,42.6,6.5,63.9,10.1c26.1,4.5,52.1,9.5,77.9,15c38.9,8.4,77.6,18,115.5,30.2c31.6,10.2,62.5,21.8,91.7,37.6
		c18.2,9.9,35.4,21.1,49.7,36.3c10.3,11,17.9,23.4,20.1,38.6c0,0.2,0.3,0.3,0.4,0.5C1907.5,310.7,1907.5,316.1,1907.5,321.4z"/>
	<path class="st0" d="M12.5,305.3c1-3.7,1.8-7.5,3.1-11.2c5.3-15.3,15.4-27.1,27.4-37.5c19.5-16.9,42-28.8,65.2-39.3
		c21.3-9.7,43.4-17.5,65.6-24.9c2.4-0.8,3.3-0.6,3.1,2.2c-0.3,6.6-0.4,13.2-0.4,19.8c0,2.3-0.7,3.3-2.9,4
		c-18.4,6.1-36.6,12.8-54.3,20.8c-20.3,9.1-40.1,19.2-57.4,33.4c-7.5,6.1-14.2,13-19.2,21.4c-7.5,12.5-7.4,25,0.1,37.3
		c6.8,11.2,16.5,19.7,27,27.2c21.6,15.4,45.5,26.4,70,36.1c8.2,3.2,16.5,6.2,24.7,9.2c1.8,0.7,2.8,1.3,2.5,3.5
		c-0.7,7.4-1.3,14.9-2,22.6c-14.6-4.8-28.6-10-42.4-15.7c-23.6-9.8-46.4-20.8-67.3-35.7C42.2,369,30,358.2,21.5,343.9
		c-4.1-6.9-7.2-14.3-8.3-22.4c0-0.3-0.4-0.5-0.6-0.7C12.5,315.6,12.5,310.5,12.5,305.3z"/>
	<path class="st0" d="M1056.2,291.9c9.8,6.3,15.5,15.4,20.5,25c17.6,34,34.9,68.1,52.5,102.1c11.2,21.6,21.7,43.5,33.7,64.7
		c3.4,5.9,7.2,11.6,11.6,16.9c10.1,12.3,23.3,16.3,38.7,14.4c3.2-0.4,6.4-0.9,9.7-1c8.4-0.3,11.7,3.8,10.9,12.5
		c-0.7,7.5-5.3,12.9-11,17.4c-14.4,11.4-30.8,18.3-48.9,21.2c-17.2,2.8-33.8,1.7-49.5-6.9c-11.5-6.3-21-14.8-29.4-24.7
		c-15.6-18.5-27.3-39.5-38.6-60.7c-14.5-27.4-26.3-56.1-39.7-84.1c-9.4-19.6-18.5-39.4-30.4-57.8c-6.8-10.5-16.9-15.7-28.9-17.5
		c-11.7-1.8-23.4-1.7-35.2-1.4c-3.4,0.1-6.6,0.8-9.9,1.6c-8.3,2.1-11.6,8.2-12.6,15.9c-0.5,3.5-0.7,7.1-0.7,10.7
		c0,37.1-0.1,74.2,0.1,111.3c0,11.6,1.2,23.2,3.8,34.6c4.7,20.9,17.2,34.5,37.1,41.8c6.4,2.3,13.1,3.8,19.1,7
		c9.1,4.9,12.3,12.1,9.5,22.1c-1.6,5.8-5.7,8.7-12.5,9.1c-7.8,0.5-15.4-0.8-23.1-1.6c-15.1-1.6-30.2-3.2-45.5-4
		c-27.8-1.3-55.5,0.1-83.2,2.7c-11.9,1.1-23.8,2.5-35.8,2.9c-2.2,0.1-4.5,0.1-6.7-0.3c-10.8-2.2-15.1-13-9-22.2
		c3.5-5.2,8.6-8.3,14-11.1c7.4-3.8,14.8-7.4,21.2-12.7c12.1-9.9,18.3-23.1,21.3-38.1c2-10.1,2.7-20.4,2.7-30.7
		c0-101,0.1-202-0.1-303c0-14-0.3-28-3.1-41.8c-5.2-24.8-19.8-39.2-44.5-43.9c-5.9-1.1-11.9-2.1-17.4-4.8c-5.8-2.8-9.8-6.8-9.6-13.9
		c0.3-8.8,5.8-14.5,14.7-14.9c6.8-0.3,13.4,0.8,20.1,1.5c16.6,1.9,33.2,3.1,49.8,4c26.7,1.4,53.3,0,79.8-1.9
		c31.6-2.2,63.2-4.8,94.9-3.4c27.6,1.2,54.6,6,79.8,18.2c38.3,18.7,61.7,48.8,69.3,90.9c4.3,24.1,4.3,48.1-2.4,71.8
		c-8.3,29.6-27.2,50.8-53.3,66.2C1079.7,282.5,1068.4,287.5,1056.2,291.9z M900.5,179.2c0,20.1,0,40.1,0,60.2c0,5.7,0.4,11.4,1.3,17
		c1.9,11.6,6.4,16.4,17.7,18.7c10.8,2.2,21.8,2.5,32.7,2.7c18.4,0.3,36.7-0.6,54.5-5.5c25-6.9,42.3-21.9,49.6-47.3
		c4.2-14.8,5.1-29.9,4.5-45.2c-0.6-16.2-2.9-32-8.3-47.3c-10-28.2-27.8-49.8-55.4-62.3c-20.4-9.3-42-12.1-64.2-9.7
		c-17.1,1.8-25.2,9.5-29.2,26.1c-2.8,11.7-3,23.7-3.1,35.7C900.3,141.3,900.5,160.2,900.5,179.2z"/>
	<path class="st0" d="M1221.5,361.4c-16,0.1-29.7-2.9-41.6-11.7c-15.7-11.6-21-27.6-19.5-46.6c2.2-27.6,25.1-50.2,52.8-54.7
		c15.3-2.5,30.3-0.5,44.9,4.8c3.8,1.4,7.6,2.4,11.4,3.9c2.4,0.9,4.4,0.5,6.1-1.3c1.1-1.2,2.4-2.4,4.1-1.5c1.8,0.9,1.4,2.8,1.2,4.5
		c-1.5,8.6-1.2,17.2,0,25.7c0.2,1.7,0.6,3.5-1.6,4.1c-2,0.5-3.4-0.5-4.3-2.4c-1.2-2.9-2.2-5.9-3.8-8.5c-7.6-12.7-19.5-19-33.4-22.1
		c-8.3-1.8-16.7-1.5-24.8,1c-12.8,3.9-21.6,12.3-25.6,24.9c-5.6,17.5-4.3,34.8,4.5,51c13.4,24.7,41.5,24.9,59.7,15
		c5.8-3.1,5.9-9.1,6.7-14.6c0.1-0.7,0-1.3,0-2c0.5-11.1-3.3-14.6-12.1-15.7c-2.3-0.3-4.6-1-6.8-1.6c-1.6-0.5-2.9-1.4-2.6-3.4
		c0.3-1.9,1.8-2.2,3.2-2.2c3.1,0,6.3,0,9.4,0.2c13,1.1,25.9,0.8,38.9-0.2c2.2-0.2,5.2-0.8,5.7,2.5c0.4,2.9-2.6,3-4.5,3.5
		c-5.7,1.5-8.2,4.1-8.4,10c-0.2,5.4-0.4,10.8,0,16.1c0.3,3.8-1.1,6-4.3,7.4c-12.4,5.3-25.1,10-38.5,12.4
		C1232.3,360.8,1226.2,361.5,1221.5,361.4z"/>
	<path class="st0" d="M1597.6,300.8c4.5-3.2,8.8-6.1,13.8-7.8c11.6-4,23-4.3,33.1,3.5c9.5,7.4,11.4,18,10.3,29.3
		c-2.4,25.9-32,41.3-55.1,31.9c-0.6-0.2-1.2-0.5-2.2-0.9c0,6.6-0.4,13.1,0.1,19.4c0.3,3.9,3.6,5.9,7.3,7c1.6,0.5,3.3,0.7,4.9,1.2
		c1.3,0.4,2.4,1.3,2.2,2.9c-0.2,1.7-1.4,2.5-3,2.6c-2.5,0.1-4.9,0.1-7.4-0.1c-9.1-0.7-18.1-0.9-27.1,0.1c-0.9,0.1-1.8,0.1-2.7,0.1
		c-1.2,0.1-2.2-0.4-2.7-1.6c-0.5-1.3,0-2.4,1.1-3.2c0.2-0.1,0.3-0.3,0.5-0.4c6.3-2,6.4-7.3,6.4-12.5c0-19.6,0-39.2,0-58.8
		c0-1.3-0.1-2.7-0.2-4c-0.5-5-1.8-6.2-6.8-7.2c-1.7-0.3-4.4,0.4-4.5-2.4c-0.1-2.6,2.3-3,4.2-3.4c8.1-1.7,15.9-4.2,23.6-7.3
		c3-1.2,4-0.3,4,3C1597.6,295,1597.6,297.6,1597.6,300.8z M1597.3,325.7c0,5.4,0.1,10.8-0.1,16.1c-0.1,2.2,0.8,3.5,2.3,4.8
		c5.3,4.5,11.5,6.8,18.4,7c11.2,0.3,18.7-6.1,20.6-17c0.7-4.4,0.5-8.7-0.2-13c-2.8-19.1-23.1-28.5-38.8-18.1
		c-1.6,1.1-2.4,2.2-2.4,4.3C1597.4,315.2,1597.3,320.5,1597.3,325.7z"/>
	<path class="st0" d="M1072.8,521.3c-10.2,0.9-20.2,0.5-30.1,0.8c-21.7,0.7-43.5,0.6-65.2,0.7c-4.7,0-9.4,0.5-14.1,0.2
		c-14.9-0.9-27.8-6.7-38.9-16.5c-2.4-2.1-4.1-4.9-5.8-8.1c3.9,0,7.4,0,11,0c26.6,0,53.1,0.1,79.7-0.1c14.9-0.1,29.8-0.5,44.7-0.9
		c3-0.1,4.8,0.7,6.3,3.5C1064.2,507.7,1068.5,514.2,1072.8,521.3z"/>
	<path class="st0" d="M1529.4,349.4c-3.1,1.9-5.9,3.8-8.9,5.5c-6.9,3.9-14.4,5.5-22.3,4.8c-12-1.1-19.9-8.7-22-21.2
		c-0.8-4.6-0.7-9.1-0.7-13.7c0-5.6,0-11.2,0-16.8c-0.1-6.5-1.4-8.1-7.7-9.7c-0.6-0.2-1.3-0.3-1.9-0.6c-1.5-0.7-2.8-1.6-2.5-3.5
		c0.3-2.1,2-2.2,3.6-2.2c8.1,0.4,16.1-0.4,24-1.4c5-0.6,5.7,0.2,5.2,5.2c-1.2,12.3-1.4,24.6-0.5,36.9c1.1,14.5,16,21.9,28.6,14.3
		c4-2.4,5.4-6.1,5.5-10.5c0.1-10,0.1-19.9,0-29.9c0-5.4-1.6-7.1-6.8-8.2c-0.2,0-0.4-0.1-0.7-0.1c-2-0.8-5-0.8-4.5-3.9
		c0.5-3.1,3.3-2.3,5.5-2.3c6.8,0.2,13.6-0.4,20.4-1.2c0.3,0,0.7-0.2,1-0.2c5.8-0.9,6.6-0.1,6,5.6c-1,8.7-0.3,17.5-0.5,26.2
		c-0.1,6.4,0,12.8,0,19.2c0,6,1.6,7.8,7.4,8.7c2,0.3,4.9-0.2,4.8,2.8c-0.1,3.1-2.9,3.2-5.3,3.3c-7.3,0.1-14.4,0.5-21.4,3
		c-4.4,1.5-6.4-0.2-6.3-4.7C1529.4,353,1529.4,351.3,1529.4,349.4z"/>
	<path class="st0" d="M444.8,490.1c3.4-7.3,6.7-14.3,9.9-21.4c0.7-1.6,1.8-1.4,3-1.2c7.9,1,15.7,2.1,23.6,3
		c14.2,1.7,28.4,3.5,42.6,5.1c13.7,1.5,27.4,3,41,4.4c3.6,0.4,7.1,0.7,10.7,1c0.9,0.1,2.3-0.2,2.1,1.3c-0.8,7.5-1.4,15.2-6.5,21.4
		c-0.9,1.1-1.9,1.3-3.2,1.2c-23.5-2.6-47-4.8-70.4-7.8c-16.4-2.1-32.8-4.2-49.3-6.3C447.4,490.7,446.2,490.4,444.8,490.1z"/>
	<path class="st0" d="M675.1,126.8c-0.2-4.2,0.5-8.3,0.6-12.4c0.1-2.2,0.9-2.7,3-2.8c16.2-0.9,32.4-1.9,48.6-2.8
		c19.9-1,39.8-1.9,59.7-2.8c3-0.1,6-0.2,9-0.4c1.7-0.1,2.6,0.3,2.9,2.3c1.2,6.7,1.7,13.5,2.3,20.3c0.2,2.3-1.4,1.7-2.3,1.7
		c-8.9,0.5-17.9,0.8-26.8,1.2c-20.8,0.9-41.6,1.8-62.3,3.2c-10.8,0.7-21.7,1.3-32.5,2.1c-1.8,0.1-2.3-0.3-2.2-2.1
		C675.2,131.8,675.1,129.3,675.1,126.8z"/>
	<path class="st0" d="M334.8,472.4c-8-1.5-15.5-2.9-22.9-4.4c-28.3-5.9-56.5-12.1-84.4-19.4c-2.2-0.6-3.2-1.3-3.2-3.9
		c0.2-7.3,0.1-14.5,0.1-22.2c6.5,1.7,12.8,3.3,19.1,4.9c25.5,6.6,51.2,12.3,77,17.3c1.4,0.3,2.7,0.5,3.4,2.2
		C327.4,455.2,331,463.4,334.8,472.4z"/>
	<path class="st0" d="M1411.1,290.4c15.3,0.1,26.5,3.1,36,11.6c13.6,12.3,12.3,35.2-1.3,47.2c-11.2,9.9-24.5,12.7-39,11.6
		c-10.6-0.8-20.1-4.4-27.6-12.1c-13.6-14.1-11.4-36.1,4.8-48.6C1392.9,293.1,1402.9,290.2,1411.1,290.4z M1409.4,296.5
		c-11,0-18.4,6.3-19.6,18.6c-0.8,8.7,0.6,17.2,4.6,25c3.3,6.4,7.9,11.6,15.1,13.9c12.8,4.1,25.7-2.4,27.5-14.5
		c1.6-11.1-0.2-21.8-6.4-31.4C1426.1,300.9,1419.8,296.3,1409.4,296.5z"/>
	<path class="st0" d="M688.9,490c11.5,0.7,23,1.5,34.5,2c17.3,0.9,34.6,1.6,51.9,2.4c5.7,0.3,11.4,0.5,17.1,0.7c1.6,0,2,0.3,1.2,1.9
		c-4.7,9.6-12.2,16.4-21.4,21.4c-1.3,0.7-2.9,0.3-4.3,0.2c-15.7-0.7-31.5-1.5-47.2-2.2c-3.8-0.2-7.6-0.5-11.4-0.7
		c-0.8,0-1.5-0.3-2.2-0.7C699.9,511.2,690.7,498.6,688.9,490z"/>
	<path class="st0" d="M1331.6,305.1c3.9-4.4,7.3-8.2,11.3-11.3c7.2-5.6,18.6-2.2,21.9,6.3c0.5,1.2,0.6,2.4,0.1,3.6
		c-0.7,1.5-1.3,3.1-2.2,4.5c-4.4,7.1-6,7.5-12.9,3c-1.1-0.7-2.3-1.4-3.5-2c-7.1-3.4-12.7-0.4-14.1,7.2c-0.5,2.5-0.7,5.1-0.6,7.7
		c0.1,5.8,0,11.7,0,17.5c0.1,6.4,2.2,9.1,8.4,10.8c1.7,0.5,3.5,0.8,5.2,1.4c1.3,0.5,2.5,1.4,2.3,2.9c-0.2,1.5-1.4,2.2-2.9,2.3
		c-2.8,0-5.6,0.2-8.4-0.1c-10-1.1-19.9-0.4-29.9,0.1c-1,0.1-2.1,0.2-3-0.2c-1.7-0.8-2.5-2.1-0.7-3.6c1-0.9,2.1-1.7,3.3-2.3
		c3.8-2,5.4-5.3,5.4-9.4c0.1-11,0.1-22,0-33c-0.1-6-1.7-7.6-7.7-8.4c-1.8-0.2-4.6,0.2-4.8-2.5c-0.1-2.5,2.5-2.9,4.4-3.2
		c8.3-1.4,16.2-4,24-7.1c3.9-1.6,5-0.7,4.9,3.6C1332.2,296.8,1331.9,300.6,1331.6,305.1z"/>
	<path class="st0" d="M558.7,121.5c-3.2,6.8-6.4,13.1-9.1,19.5c-1.8,4.6-4.2,6.8-9.6,7.2c-14.8,1.2-29.6,3.2-44.3,5
		c-16.3,2-32.6,4-48.9,6.3c-15.8,2.2-31.6,4.7-47.4,7.1c-22.6,3.5-45.2,7.4-67.6,11.8c-7.5,1.4-7.5,1.6-10.7-5.5
		c-2-4.6-4-9.2-6.1-13.7c-0.8-1.8-0.5-2.2,1.4-2.6c29.4-5.8,58.8-10.9,88.4-15.6c26.4-4.1,52.8-7.8,79.4-11.2
		c20.5-2.6,41.1-4.7,61.7-7C549.9,122.5,554,122.1,558.7,121.5z"/>
	<path class="st0" d="M1039.1,127.5c-6.5,0-12.9,0.2-19.2,0c-28.5-0.9-56.9-0.4-85.4-0.5c-7.1,0-14.1,0.1-21.2,0.3
		c-1.7,0-2.4-0.4-2.3-2.2c0.2-6.5,0.3-13,0.4-19.5c0-2.1,0.7-2.8,2.9-2.8c25.3,0,50.7-0.1,76-0.1c10.1,0,20.2,0.2,30.2,0.2
		c2.3,0,3.9,0.6,5.4,2.5c5,6.5,9.4,13.3,12.8,20.8C1038.9,126.5,1038.9,127,1039.1,127.5z"/>
</g>
</svg>
