<?xml version="1.0" encoding="utf-8"?>
<!-- Generator: Adobe Illustrator 22.0.1, SVG Export Plug-In . SVG Version: 6.00 Build 0)  -->
<svg version="1.1" id="svg4896" xmlns:svg="http://www.w3.org/2000/svg"
	 xmlns="http://www.w3.org/2000/svg" xmlns:xlink="http://www.w3.org/1999/xlink" x="0px" y="0px" viewBox="0 0 1024 398"
	 style="enable-background:new 0 0 1024 398;" xml:space="preserve">
<style type="text/css">
	.st0{fill:#272727;}
</style>
<g id="layer1" transform="translate(-291.28938,-499.82031)">
	<path id="path4850" class="st0" d="M783.5,499.8c-12.2,1.9-23.9,5.4-34.8,10.3c0,0,12.7,24.5,19.1,40.9
		c9.3,23.8,11.7,46.2,11.7,46.2c6.1-3.2,14.2-5.7,21.4-6.3c0,0,0.3-22.9-4.8-46.4C790.2,517,783.5,499.8,783.5,499.8z M823.4,499.8
		c0,0-6.7,17.2-12.6,44.7c-5.1,23.6-4.6,46.4-4.6,46.4c7.3,0.6,15.1,3.1,21.2,6.3c0,0,2.4-22.5,11.7-46.2
		c6.4-16.4,19.1-40.9,19.1-40.9C847.3,505.2,835.6,501.7,823.4,499.8z M722.1,526.2c-9.8,7.6-18.6,16.3-26,26.2
		c0,0,20.5,9,35.5,23.5c20.6,19.9,27.9,39.9,27.9,39.9c3.8-6.1,8.9-11.4,14.9-15.5c0,0-7.7-24.1-20.1-41.9
		C742,540.8,722.1,526.2,722.1,526.2z M884.9,526.2c0,0-20.1,14.6-32.5,32.3c-12.4,17.7-20.1,41.9-20.1,41.9
		c6,4.1,11.1,9.4,14.9,15.5c0,0,7.3-20,27.9-39.9c15-14.5,35.5-23.5,35.5-23.5C903.4,542.5,894.7,533.8,884.9,526.2z M682.2,576.1
		c-5.1,11.1-8.6,22.9-10.5,35.4c0,0,18.3-2,44.5,8c21.6,8.2,35.7,21.8,35.7,21.8c0.2-6.6,1.9-13.3,4.4-19.1c0,0-6.9-13-27.3-26.9
		C707.1,580.2,682.2,576.1,682.2,576.1z M924.7,576.1c0,0-24.9,4.1-46.8,19.1c-20.4,14-27.3,26.9-27.3,26.9
		c2.5,5.8,4.2,12.5,4.4,19.1c0,0,14.2-13.6,35.7-21.8c26.2-10,44.5-8,44.5-8C933.3,599,929.8,587.1,924.7,576.1z"/>
	<path id="path4862" class="st0" d="M694.4,632.1c-15.6-0.1-24.3,2.9-24.3,2.9c0.3,12.6,2.5,24.6,6.1,36.1c0,0,17-8.6,37.8-9.6
		c26.2-1.3,44.1,5.7,44.1,5.7c-3.2-5.9-5.2-12.5-5.9-19.5c0,0-20.9-11.8-40.1-14.3C705.5,632.5,699.6,632.1,694.4,632.1z
		 M912.5,632.1c-5.2,0-11.1,0.4-17.8,1.3c-19.2,2.6-39.9,14.3-39.9,14.3c-0.7,7-2.9,13.6-6.1,19.5c0,0,17.9-7,44.1-5.7
		c20.8,1,37.8,9.6,37.8,9.6c3.6-11.5,5.8-23.5,6.1-36.1C936.7,634.9,928,632,912.5,632.1z M735.7,672.8c-4.6,0.2-9.4,0.8-13.8,1.7
		c-26.7,5.4-38.4,14.7-38.4,14.7c5.4,11.1,12.3,21.4,20.4,30.6c0,0,11-10.4,30-19.5c25.7-12.2,51.8-9.7,51.8-9.7
		c-9.2-3.4-17.3-9.2-23.1-16.8C762.6,673.7,749.6,672,735.7,672.8z M858,672.8c-8,0.2-13.8,1-13.8,1c-5.9,7.6-13.7,13.4-22.9,16.8
		c0,0,25.9-2.5,51.6,9.7c19,9.1,30,19.5,30,19.5c8.2-9.1,15.2-19.4,20.6-30.6c0,0-11.9-9.3-38.6-14.7
		C876.1,672.7,866,672.5,858,672.8z M803.5,692.8c-54.4,0-86.2,39.9-86.2,39.9c9.6,8.1,20.4,14.9,32.1,20.1c0,0,16.6-32.5,54.1-32.5
		c37.5,0,53.9,32.5,53.9,32.5c11.7-5.2,22.5-11.9,32.1-20.1C889.5,732.8,857.9,692.8,803.5,692.8z M291.4,789.7v9.9H305V886h-13.6
		v9.7H329V886h-13.4v-32.1h20.1c10,0,18-1.3,25.6-8.6c6.7-6.4,10.1-14.7,10.1-23.9c0-9.7-4.3-19.1-12-24.8
		c-7.3-5.3-15.9-6.9-24.7-6.9H291.4z M764.4,789.7v9.2h13v36.9c-6.2-12.2-18.8-19.3-32.3-19.3c-21.7,0-39.7,18.7-39.7,40.3
		c0,7.7,2.7,16.2,6.7,22.5c6.8,10.8,21.1,18.5,33.4,18.5c13.5,0,25.2-7,31.9-18.5v16.4h22.9v-9.2h-13.2v-96.9H764.4z M849.2,789.7
		v9.9h13.6V886h-13.6v9.7h36.9V886h-12.6v-86.4h20.8c8,0,14.8,0.1,21,5.9c5.3,4.9,8,11.9,8,19.3c0,8.6-4.4,16.6-11.8,21.2
		c-7,4.3-14.7,4-22.7,4h-4l32.9,45.7h20.6V886h-14.1l-22.2-29c18.1,0,32.1-14.7,32.1-32.7c0-10.4-4-19.9-12-26.8
		c-8.2-7-16.7-7.8-26.9-7.8H849.2z M960.2,789.7V805h9.7v-15.3H960.2z M1279.4,789.7v9.2h13v36.9c-6.2-12.2-18.8-19.3-32.3-19.3
		c-21.7,0-39.9,18.7-39.9,40.3c0,7.7,2.9,16.2,6.9,22.5c6.8,10.8,21.1,18.5,33.4,18.5c13.5,0,25.2-7,31.9-18.5v16.4h22.7v-9.2h-13
		v-96.9H1279.4z M315.7,799.7h18.9c6.8,0,12.1,0.7,17.8,5c5.2,4.1,8.4,10.5,8.4,17.2c0,6.8-2.7,12.9-8,17.4c-5.3,4.4-11.3,5-18,5
		h-19.1V799.7z M412.9,816.5c-22.5,0-40.1,19-40.1,41.1c0,22.3,18.3,40.3,40.7,40.3c16,0,30.6-9.3,37.1-23.9h-10.3
		c-5.6,9.8-15.8,15.1-27.1,15.1c-16,0-29.7-12.7-30.6-28.7h71.3v-3.1C453.8,834.4,436.1,816.5,412.9,816.5z M570.4,816.5
		c-10.7,0-21.3,5.3-26.2,14.9v-13.6h-22.9v9.2h13.2v59.6h-13.2v9.2h35.9v-9.2h-13v-32.5c0-7.3,0.1-13.9,5.2-19.9
		c4.5-5.2,11.5-8,18.3-8c7.4,0,16.1,2.1,20.3,9.4c3.6,6.1,3.8,12.9,3.8,19.9v31.1h-13.2v9.2h35.9v-9.2h-13v-34.8
		c0-9.5-2.5-16.6-4.4-20.4C592.1,821.1,579.1,816.5,570.4,816.5z M656.6,816.5c-22.7,0-41.1,18.2-41.1,40.9
		c0,22.3,18.1,40.5,40.7,40.5c22.8,0,40.9-18.6,40.9-41.3C697.1,834.6,678.7,816.5,656.6,816.5z M1021.2,816.5
		c-11.3,0-21.1,4.9-28.5,12.4c-7.1,7.3-11.5,17.5-11.5,28.7c0,21.8,18.2,40.3,40.3,40.3c17.1,0,32.8-10.4,38.6-26.6h-10.9
		c-4.6,10.4-15.6,16.6-26.8,16.6c-17.5,0-31.3-13.2-31.3-30.6c0-17.2,13.3-31.1,30.6-31.1c10.8,0,21.1,5.9,26.8,15.1h9.2v-23.5h-9.2
		v11.1C1041.4,820.9,1032.2,816.5,1021.2,816.5z M1104.7,816.5c-14.1,0-27.4,7.1-33.8,18.3c-3.3,5.8-6.5,11.1-6.5,22.4
		c-0.3,8.6,2.5,16,6.3,22.4c6.8,11.3,19.8,18.3,34,18.3c13.5,0,25.1-6.6,31.9-18.3v16.2h22.5v-9.2h-12.8V827h12.8v-9.2h-22.5v17
		C1129.5,822.9,1118.8,816.5,1104.7,816.5z M459.2,817.8v9.2h13.2v59.6h-13.2v9.2h35.9v-9.2h-13v-31.3c0-16.6,7.6-26.8,24.8-28.3
		v-9.2c-11.1,0.4-21.3,5-24.8,15.9v-15.9H459.2z M947.2,817.8v9.2h13v59.6h-13.4v9.2H983v-9.2h-13v-68.8H947.2z M1169.7,817.8v9.2
		h13.2v59.6h-13.2v9.2h35.9v-9.2h-13v-31.3c0-16.6,7.6-26.8,24.8-28.3v-9.2c-11.1,0.4-21.3,5-24.8,15.9v-15.9H1169.7z M412.7,825.5
		c15.9,0,29.7,11.1,31.9,26.9h-62.1C384.3,837.7,397.7,825.5,412.7,825.5z M746.6,825.8c17.1,0,31.1,13.7,31.1,31
		c0,17.5-13.6,31.7-31.1,31.7c-17.1,0-31.5-13.9-31.5-31.1C715.1,840,729.1,825.8,746.6,825.8z M1261.4,825.8
		c17.1,0,31.1,13.7,31.1,31c0,17.5-13.6,31.7-31.1,31.7c-17.1,0-31.3-13.9-31.3-31.1C1230.1,840,1243.9,825.8,1261.4,825.8z
		 M653.1,826.2c1-0.1,2.2,0,3.2,0c17.2,0,30.8,14,30.8,31c0,17.1-13.7,31-31,31c-17.4,0-31-14.2-31-31.1
		C625.2,841,637.4,827.8,653.1,826.2z M1102.4,826.2c1-0.1,2.2,0,3.2,0c17.1,0,31,13.7,31,30.8c0,17.4-13.7,31.3-31.3,31.3
		c-17.1,0-31.1-14.2-31.1-31C1074.1,841.2,1086.7,827.8,1102.4,826.2z"/>
</g>
</svg>
