<?xml version="1.0" encoding="utf-8"?>
<!-- Generator: Adobe Illustrator 22.0.1, SVG Export Plug-In . SVG Version: 6.00 Build 0)  -->
<svg version="1.1" id="Слой_2" xmlns="http://www.w3.org/2000/svg" xmlns:xlink="http://www.w3.org/1999/xlink" x="0px" y="0px"
	 viewBox="0 0 180.1 148" style="enable-background:new 0 0 180.1 148;" xml:space="preserve">
<style type="text/css">
	.st0{fill:#272727;}
</style>
<rect x="1.3" y="29.8" class="st0" width="177.3" height="1.3"/>
<path class="st0" d="M1.3,82.8v35.3h177.3V82.8H1.3z M67.5,109.6c-0.8,0-1-0.2-1-1c0-4.6,0-9.2,0-13.8c0-0.4,0.3-0.9-0.3-1.1
	c-0.6-0.2-0.6,0.4-0.8,0.8c-2.8,4.7-5.5,9.4-8.3,14.1c-0.9,1.5-1.4,1.5-2.3,0c-2.8-4.7-5.5-9.4-8.3-14.1c-0.2-0.3-0.3-0.9-0.9-0.8
	c-0.6,0.2-0.3,0.7-0.3,1.1c0,4.6,0,9.2,0,13.7c0,0.8-0.2,1.2-1.1,1.1c-0.8,0-1.2-0.1-1.2-1.1c0.1-5.2,0-10.4,0-15.6
	c0-0.8,0.3-0.9,1-1c2.4-0.4,3.7,0.5,4.8,2.7c1.9,3.7,4.3,7.3,6.4,10.9c0.2,0.3,0.3,0.7,0.7,0.8c2.1-3.5,4.2-7.1,6.3-10.7
	c0.3-0.4,0.6-0.8,0.7-1.3c0.8-2.7,2.9-2.5,5-2.4c0.8,0,0.6,0.6,0.6,1c0,4.1,0,8.2,0,12.3c0,1-0.1,2.1,0,3.1
	C68.9,109.4,68.5,109.6,67.5,109.6z M98.3,109.6c-4.5,0-9,0-13.5,0c-0.9,0-1.1-0.3-1.1-1.1c0.1-2.6,0-5.2,0-7.8c0-2.6,0-5.3,0-7.9
	c0-0.7,0.2-0.8,0.8-0.8c4.7,0,9.3,0,14,0c1,0,0.8,0.5,0.8,1.1c0,0.6,0,1.1-0.9,1.1c-3.8-0.1-7.7,0-11.5,0c-1,0-1.2,0.3-1.1,1.2
	c0.1,1.1,0.1,2.2,0,3.3c-0.1,0.9,0.3,1,1,1c3.6,0,7.1,0,10.7,0c0.7,0,1.5-0.4,1.5,1c0,1.3-0.7,1.1-1.5,1.1c-3.6,0-7.2,0-10.8,0
	c-0.7,0-1,0.1-1,0.9c0.1,1.3,0.1,2.6,0,3.8c0,0.9,0.2,1.2,1.1,1.2c3.8-0.1,7.5,0,11.3,0c0.8,0,1.1,0.1,1.1,1.1
	C99.4,109.4,99.1,109.6,98.3,109.6z M134.9,114.2c-0.6,0-1.1,0.1-1-0.8c0.1-1,0-2,0-3c0-0.7-0.2-0.9-0.9-0.8c-2.7,0-5.4,0-8.1,0
	c-2.6,0-5.1,0.1-7.7,0c-1,0-1.3,0.3-1.2,1.2c0.1,0.9,0,1.8,0,2.7c0.1,0.9-0.5,0.8-1,0.8c-0.5,0-1.1,0.1-1-0.8c0.1-1.7,0-3.5,0-5.2
	c0-0.3-0.1-0.7,0.4-0.8c1.8-0.3,2.5-1.7,2.6-3.3c0.2-2.4,0.1-4.8,0.1-7.2c0-1.4,0-2.7,0-4.1c0-0.7,0.1-1,0.9-1c5.2,0,10.3,0,15.5,0
	c0.9,0,1,0.3,1,1.1c0,4.5,0,8.9,0,13.4c0,0.7,0,1.2,1,1.1c0.5-0.1,0.5,0.3,0.5,0.7c0,1.8,0,3.6,0,5.4
	C136,114.4,135.4,114.2,134.9,114.2z"/>
<path class="st0" d="M117.8,107.4c1.2-1.6,1.5-3.2,1.5-4.8c0-2.6,0-5.2,0-7.8c0-0.7,0.2-0.8,0.8-0.8c3.8,0,7.6,0,11.4,0
	c0.6,0,0.9,0.1,0.9,0.8c0,4,0,7.9,0,11.9c0,0.4,0.1,0.8-0.5,0.8C127.2,107.4,122.6,107.4,117.8,107.4z"/>
<path class="st0" d="M57.5,71.2c-3.4,0-6.8,0-10.2,0c-0.7,0-1.3,0-2-0.1c-3.1-0.5-4.8-2.1-4.8-5.3c-0.1-5.8-0.1-11.6,0-17.3
	c0.1-3.3,2-5.2,5.3-5.4c3.4-0.3,6.9-0.1,10.3-0.1c4.4,0,8.8-0.2,13.1,0.1c3.3,0.2,5.2,2,5.4,5.3c0.3,5.6,0.2,11.2,0.1,16.7
	c-0.1,4.2-2.2,6.1-6.4,6.2C64.7,71.3,61.1,71.2,57.5,71.2z M57.6,49.8c-2.7,0-5.4,0-8.1,0c-0.7,0-1,0.1-1,0.9c0,4.3,0,8.5,0,12.8
	c0,0.8,0.3,1,1,1c5.4,0,10.7,0,16.1,0c0.8,0,1.1-0.2,1.1-1c0-4.2,0-8.5,0-12.7c0-0.9-0.3-1-1.1-1C62.9,49.8,60.3,49.8,57.6,49.8z"/>
<path class="st0" d="M175.8,56.6c2.4,1.3,3,3.4,2.9,5.8c0,0.7,0,1.4,0,2.1c0,3.7-1.7,5.8-5.3,6.5c-1,0.2-2,0.3-3,0.3
	c-5.1,0-10.2,0-15.4,0c-0.3,0-0.6,0-0.9,0c-3.8-0.2-5.4-2-5.4-5.8c0-1.5,0-3,0-4.5c0-0.6,0.1-0.9,0.8-0.9c1.9,0,3.9,0,5.8,0
	c0.6,0,0.8,0.1,0.8,0.8c-0.1,0.9,0,1.9,0,2.8c-0.1,0.8,0.2,0.9,0.9,0.9c4.1,0,8.1,0,12.2,0c1,0,1.4-0.3,1.3-1.4c0-0.5,0-1,0-1.5
	c0-1.8,0-1.8-1.8-1.8c-2.8,0-5.6,0-8.4,0c-0.8,0-1-0.3-1-1c0.1-1.4,0.1-2.8,0-4.2c0-0.8,0.2-1.1,1.1-1.1c2.8,0.1,5.6,0,8.4,0
	c0.9,0,1.3-0.2,1.3-1.2c-0.1-3.3,0.6-3-3-3c-3.2,0-6.4,0-9.5,0c-0.8,0-1.2,0.2-1,1c0,0,0,0.1,0,0.1c-0.1,1.1,0.5,2.6-0.2,3.2
	c-0.7,0.6-2.1,0.2-3.3,0.2c-1,0-2,0-3,0c-0.6,0-0.7-0.2-0.7-0.7c0.1-1.8,0-3.6,0.1-5.3c0.2-2.7,1.7-4.3,4.5-4.6c1-0.1,2-0.1,3-0.1
	c5.3,0,10.6-0.2,15.8,0.1c3.6,0.2,5.3,2.3,5.4,5.9c0,0.9,0,1.8,0,2.7C178.1,53.6,177.7,55.4,175.8,56.6z"/>
<path class="st0" d="M16.7,71.2c-2.8,0-5.7,0-8.5,0c-0.7,0-1.4-0.1-2.1-0.2c-2.8-0.5-4.4-2.1-4.6-5c-0.3-2.9-0.1-5.7-0.1-8.6
	c0-3.1-0.2-6.1,0.1-9.2c0.3-3.2,2.1-5.1,5.3-5.2c6.6-0.3,13.3-0.3,19.9,0c3.2,0.1,5,2,5.3,5.2c0.2,1.5,0,3.1,0.1,4.6
	c0,0.6-0.1,0.9-0.8,0.9c-2.2,0-4.3,0-6.5,0c-0.7,0-0.8-0.2-0.8-0.9c0,0-0.1-2.1-0.1-2.8c0-0.3-0.1-0.3-1.1-0.3c-3.5,0-8.8,0-12.3,0
	c-0.8,0-1,0.2-1,1c0,4.2,0,8.5,0,12.7c0,0.8,0.2,1,1,1c4.1,0,8.3,0,12.4,0c0.9,0,1.1-0.3,1-1.1c0-0.9,0-1.7,0-2.6
	c0-0.6,0.1-0.8,0.8-0.8c2.2,0,4.5,0,6.7,0c0.4,0,0.7,0.1,0.7,0.6c-0.1,2.1,0.2,4.3-0.3,6.4c-0.5,2.3-2,3.7-4.3,4.1
	c-2.4,0.4-4.9,0.1-7.3,0.2C19,71.3,17.9,71.2,16.7,71.2z"/>
<path class="st0" d="M144.6,71.2c-2.8,0-5.6,0-8.4,0c-0.6,0-0.8-0.3-1-0.7c-0.7-1.4-1.5-2.8-2.3-4.2c-0.3-0.6-0.7-0.8-1.3-0.8
	c-4.6,0-9.2,0-13.7,0c-0.6,0-1,0.2-1.3,0.8c-0.7,1.4-1.5,2.8-2.2,4.2c-0.3,0.5-0.5,0.8-1.1,0.7c-2.5,0-5,0-7.5,0
	c-0.2-0.3,0.1-0.5,0.2-0.7c5-8.9,10.1-17.9,15.1-26.8c0.3-0.5,0.6-0.8,1.3-0.8c1.9,0,3.7,0,5.6,0c0.5,0,0.8,0.1,1,0.5
	c5.2,9.2,10.5,18.3,15.7,27.5C144.7,71,144.7,71.1,144.6,71.2z M120.7,58.6c2.8,0,5.3,0,8.1,0c-1.3-2.5-2.6-4.9-4-7.4
	C123.4,53.7,122.1,56.1,120.7,58.6z"/>
<path class="st0" d="M83.7,57c0-4.3,0-8.7,0-13c0-0.8,0.2-1.1,1-1c8.3,0,16.5,0,24.8,0c0.7,0,1,0.1,1,0.9c-0.1,1.6-0.1,3.3,0,4.9
	c0,0.8-0.2,1-1,1c-5.5,0-10.9,0-16.4,0c-0.9,0-1.2,0.2-1.2,1.2c0,6.4,0,12.8,0,19.2c0,0.8-0.2,1.1-1.1,1.1c-2.1-0.1-4.1-0.1-6.2,0
	c-0.8,0-1-0.2-1-1C83.8,65.9,83.7,61.4,83.7,57z"/>
</svg>
