<?xml version="1.0" encoding="utf-8"?>
<!-- Generator: Adobe Illustrator 22.0.1, SVG Export Plug-In . SVG Version: 6.00 Build 0)  -->
<svg version="1.1" id="svg2" xmlns:svg="http://www.w3.org/2000/svg"
	 xmlns="http://www.w3.org/2000/svg" xmlns:xlink="http://www.w3.org/1999/xlink" x="0px" y="0px" viewBox="0 0 500 168"
	 style="enable-background:new 0 0 500 168;" xml:space="preserve">
<style type="text/css">
	.st0{fill:#272727;}
</style>
<g id="g12" transform="matrix(1.25,0,0,-1.25,-361.7335,223.03972)">
	<path class="st0" d="M488.9,178.2L488.9,178.2c-130.4,0-199.5-92.5-199.5-92.5l28.3-19.1c0,0,3.4,8.6,11.3,20.9
		c0-3.1,0.5-5.2,0.5-5.2c5-38.9,42.8-37.9,42.8-37.9h234.1c0,0,38.3-1.1,43.3,37.8c0,0,0.4,2,0.4,5.1c7.7-12,11.1-20.3,11.1-20.3
		l28.3,18.9C689.4,85.8,619.2,178.2,488.9,178.2z M643.8,82.6L643.8,82.6c0,0-5.1-29.7-38-29.7H372.1c-32.9,0-37.5,30-37.5,30
		c-1.3,8,0.3,13.4,2.7,17.2c23.7,31.1,70.5,73,151.4,73c81.6,0,128.8-42.4,152.5-73.6C644,96,645,90.3,643.8,82.6z"/>
	<path id="path1204" class="st0" d="M420.6,115l3.9,8.4h-50l-3.9-8.4H390l-20.1-40.8h12.9l20,40.8L420.6,115L420.6,115z"/>
	<path id="path1208" class="st0" d="M601.2,87.8c-3.7-5.2-9-7.9-11.8-5.9c-2.8,2-2,7.8,1.7,13.1s9,7.9,11.8,5.9
		C605.6,98.9,604.9,93,601.2,87.8 M557.4,88c-3.7-5.2-9-7.9-11.8-5.9c-2.8,2-2,7.8,1.7,13.1c3.7,5.2,9,7.9,11.8,5.9
		C561.9,99.1,561.1,93.2,557.4,88 M503,91.8c0,0,2.4,8.1,10.3,11.4c0,0,2.2,0.8,3.4-0.2c0,0,1.7-1.6-0.3-4.6
		c-1.8-2.7-6.1-7.5-10.7-9.1C505.6,89.2,501.4,87.4,503,91.8 M426.7,88c-3.7-5.2-9-7.9-11.8-5.9c-2.8,2-2,7.8,1.7,13.1
		c3.7,5.2,9,7.9,11.8,5.9C431.2,99.1,430.4,93.2,426.7,88 M613.6,81.6c0,0-2.5-1.2-3.6,0c-1.1,1.1-0.1,3.2-0.1,3.2l10.6,22.2h-10.8
		l-1.6-3c-6.3,5.5-18.1,2.7-25.4-5c-4.2-4.4-6.6-9.7-7-14.2c-1.2-0.8-3.2-2-5.8-3c0,0-2.5-1.2-3.6,0c-1.1,1.1-0.1,3.2-0.1,3.2
		l18.8,38.6h-10.8l-9.8-19.4c-6.3,5.5-18.1,2.7-25.5-5c-1.5-1.6-2.7-3.2-3.8-4.9l0,0c-0.1-0.1-0.1-0.3-0.2-0.4
		c-0.2-0.4-0.5-0.8-0.7-1.2C528.3,82.7,521,81,521,81c-15.4-4.6-17.1,2.9-17.1,2.9c17.2,6.4,23.7,13.9,23.1,19.7
		c-0.6,5.8-8.5,6.1-8.5,6.1c-13,0.8-24.3-8.3-27.1-17.2c-0.8-2.7-1.1-5.5-0.6-8.1c-5.2-2.8-8.2-3.2-8.2-3.2
		c-4.3-1.4-4.9,0.7-5.4,1.9c-0.5,1.3-2.5,12.4-2.5,12.4l18.3,12h-11.2l-13.7-8.5c-3.1-1.3-1.9,2-1.9,2l11.2,22.7h-10.8l-18.2-36.9
		c-2.1-1.3-6.3-3.7-9.3-4.9c0,0-2.5-1.2-3.6,0c-1.1,1.1-0.1,3.2-0.1,3.2l10.6,22.2h-10.8l-1.6-3c-6.3,5.5-18.1,2.7-25.4-5
		c-7.3-7.7-9.2-17.8-4.2-22.6c4-3.8,11.2-3.1,17.7,1.2c0,0,1.6,1.4,2.5-0.2c0.9-1.7,4.6-5.6,13.2-2.2c2.7,1.1,5.2,2.3,7.3,3.5
		l-2.2-4.5h10.8l5.4,10.9l4.7,3c0,0,1.4,1.1,2-1.3c0,0,2.3-9.2,3.2-10.4c0.9-1.2,2.7-3.9,10.3-1.7c5.8,1.7,11.2,3.7,14.1,4.9
		c2.5-3.5,7.4-5.9,15.4-5.9c11.8,0,20.1,5.6,23.7,8.6c0.3-2.3,1.2-4.4,2.7-5.9c4-3.8,11.2-3.1,17.7,1.2c0,0,1.6,1.4,2.5-0.2
		c0.9-1.7,4.6-5.6,13.2-2.2c3.9,1.5,6.5,3,8.3,4.2c0.5-1.2,1.1-2.3,2.1-3.2c4-3.8,11.2-3.1,17.7,1.3c0,0,1.6,1.4,2.5-0.2
		c0.9-1.7,4.6-5.6,13.2-2.2c8.6,3.4,11,6.4,11,6.4l-2.2,3.8C620.4,85.3,617.7,83.2,613.6,81.6"/>
</g>
</svg>
