<?xml version="1.0" encoding="utf-8"?>
<!-- Generator: Adobe Illustrator 22.0.1, SVG Export Plug-In . SVG Version: 6.00 Build 0)  -->
<svg version="1.1" id="Слой_1" xmlns="http://www.w3.org/2000/svg" xmlns:xlink="http://www.w3.org/1999/xlink" x="0px" y="0px"
	 viewBox="0 0 180.1 148" style="enable-background:new 0 0 180.1 148;" xml:space="preserve">
<style type="text/css">
	.st0{fill:#272727;}
</style>
<g>
	<path class="st0" d="M85.4,93.6c-7.9-4.9-13.7-22-13.7-42.2c0-0.7,0-1.5,0-2.2l0,0c-21.9-3.4-37.7-12.9-38.1-24l-0.1,0.1
		c-5.4,6.7-8.4,14.4-8.4,22.6c0,24.1,26.5,43.9,60.1,45.7L85.4,93.6z M15,49.7c0-27,33.6-48.9,75.1-48.9s75.1,21.9,75.1,48.9
		s-33.6,48.9-75.1,48.9S15,76.7,15,49.7z M90.1,7.8c8,0,14.8,12.1,17.3,29.1l0,0c15.6-2.4,26.5-8,26.5-14.5
		c0-8.7-19.6-15.8-43.8-15.8s-43.8,7.1-43.8,15.8c0,6.5,10.9,12.1,26.5,14.5l0,0C75.2,20,82.1,7.8,90.1,7.8z M94.9,93.6
		c33.6-1.8,60.1-21.5,60.1-45.7c0-8.2-3.1-15.9-8.4-22.6l-0.1-0.1c-0.4,11.1-16.2,20.6-38.1,24l0,0c0,0.7,0,1.5,0,2.2
		c0,20.2-5.8,37.2-13.7,42.2L94.9,93.6z M90.1,38.2c3.6,0,7.1-0.2,10.4-0.4l0,0c-1.7-10.9-5.7-18.5-10.4-18.5
		c-4.7,0-8.7,7.7-10.4,18.5l0,0C83,38,86.5,38.2,90.1,38.2z M90.1,78.4c6,0,10.9-12.5,11.2-28.3l0,0c-3.6,0.3-7.4,0.5-11.2,0.5
		c-3.8,0-7.6-0.2-11.2-0.5l0,0C79.1,65.8,84,78.4,90.1,78.4z"/>
	<g>
		<path class="st0" d="M89.9,131.6c0-8.7,7-15.7,15.7-15.7c8.7,0,15.7,7,15.7,15.7c0,8.7-7,15.7-15.7,15.7
			C96.9,147.2,89.9,140.2,89.9,131.6z M105.6,141.5c4.8,0,8.7-4.4,8.7-9.9c0-5.5-3.9-9.9-8.7-9.9c-4.8,0-8.7,4.4-8.7,9.9
			C96.8,137.1,100.8,141.5,105.6,141.5z"/>
		<path class="st0" d="M139,122.4v24.1h-6.6v-24.1h0h-9.2V117h25v5.4L139,122.4L139,122.4L139,122.4z"/>
		<path class="st0" d="M156.2,139.9L156.2,139.9l-2.5,6.6H146l12.2-29.5h4.1h4.1l12.2,29.5h-7.7l-2.5-6.6l0,0h-6H156.2z
			 M162.3,134.9h4.2l0,0l-4.1-10.8h-0.1l-4.1,10.8l0,0H162.3z"/>
		<path class="st0" d="M17.4,122.4v24.1h-6.6v-24.1h0H1.6V117h25v5.4L17.4,122.4L17.4,122.4L17.4,122.4z"/>
		<path class="st0" d="M28.3,131.6c0-8.7,7-15.7,15.7-15.7c8.7,0,15.7,7,15.7,15.7c0,8.7-7,15.7-15.7,15.7
			C35.3,147.2,28.3,140.2,28.3,131.6z M43.9,141.5c4.8,0,8.7-4.4,8.7-9.9c0-5.5-3.9-9.9-8.7-9.9s-8.7,4.4-8.7,9.9
			S39.1,141.5,43.9,141.5z"/>
		<path class="st0" d="M74.8,146.5h3.3v-11.1v-0.1L89.6,117h-7.7l-7.2,12.4L67.6,117h-7.7l11.5,18.3v0.1v11.1L74.8,146.5L74.8,146.5
			z"/>
	</g>
</g>
</svg>
