<?xml version="1.0" encoding="utf-8"?>
<!-- Generator: Adobe Illustrator 22.0.1, SVG Export Plug-In . SVG Version: 6.00 Build 0)  -->
<svg version="1.1" id="Ebene_1" xmlns="http://www.w3.org/2000/svg" xmlns:xlink="http://www.w3.org/1999/xlink" x="0px" y="0px"
	 viewBox="0 0 1024 156" style="enable-background:new 0 0 1024 156;" xml:space="preserve">
<style type="text/css">
	.st0{fill:#272727;}
</style>
<path class="st0" d="M459,68c0.6,0,0.6-0.3,0.5-0.7L448.2,40c-0.6-1.5-1.2-1.5-1.8,0l-10.4,27.3c-0.2,0.5,0,0.7,0.4,0.7H459
	 M446.7,27.6c1.4-3.3,1.9-3.9,2.6-3.9c0.7,0,1.2,0.5,2.6,3.6c1.8,3.8,20.3,45.6,27.5,61c4.2,9,7.7,10.6,10.2,11.2
	c1.8,0.5,3.5,0.6,4.7,0.6c0.7,0,1.2,0.1,1.2,0.6c0,0.6-1.1,0.8-2.4,0.8c-1.8,0-10.4,0-18.5-0.2c-2.2-0.1-3.5-0.1-3.5-0.7
	c0-0.4,0.4-0.6,0.8-0.7c0.7-0.2,1.4-1.1,0.7-2.7l-11-24.9c-0.2-0.4-0.5-0.6-1.1-0.6h-25.4c-0.6,0-0.9,0.3-1.2,0.8l-7.1,17.9
	c-1.1,2.5-1.7,5-1.7,6.8c0,2,2.5,2.9,4.5,2.9h1.2c0.8,0,1.2,0.2,1.2,0.6c0,0.6-0.7,0.8-1.8,0.8c-2.8,0-7.9-0.3-9.2-0.3
	c-1.3,0-7.8,0.3-13.3,0.3c-1.5,0-2.2-0.2-2.2-0.8c0-0.4,0.5-0.6,1.1-0.6c0.8,0,2.5-0.1,3.4-0.2c5.4-0.6,7.8-4.4,9.9-9.5L446.7,27.6z
	"/>
<path class="st0" d="M754.4,68c0.6,0,0.6-0.3,0.5-0.7L743.7,40c-0.6-1.5-1.2-1.5-1.8,0l-10.4,27.3c-0.2,0.5,0,0.7,0.4,0.7H754.4
	 M742.1,27.6c1.4-3.3,1.9-3.9,2.6-3.9c0.7,0,1.2,0.5,2.6,3.6c1.8,3.8,20.3,45.6,27.5,61c4.3,9,7.7,10.6,10.2,11.2
	c1.8,0.5,3.5,0.6,4.7,0.6c0.7,0,1.2,0.1,1.2,0.6c0,0.6-1.1,0.8-2.4,0.8c-1.8,0-10.4,0-18.5-0.2c-2.2-0.1-3.5-0.1-3.5-0.7
	c0-0.4,0.3-0.6,0.8-0.7c0.7-0.2,1.4-1.1,0.7-2.7l-11-24.9c-0.2-0.4-0.5-0.6-1.1-0.6h-25.4c-0.6,0-1,0.3-1.2,0.8l-7.1,17.9
	c-1.1,2.5-1.6,5-1.6,6.8c0,2,2.5,2.9,4.5,2.9h1.2c0.8,0,1.2,0.2,1.2,0.6c0,0.6-0.7,0.8-1.8,0.8c-2.8,0-7.9-0.3-9.2-0.3
	c-1.3,0-7.8,0.3-13.3,0.3c-1.5,0-2.2-0.2-2.2-0.8c0-0.4,0.5-0.6,1.1-0.6c0.8,0,2.5-0.1,3.4-0.2c5.4-0.6,7.8-4.4,9.9-9.5L742.1,27.6z
	"/>
<path class="st0" d="M193.5,156.5H58.6l77.5-134.3H271L193.5,156.5z M65.5,152.5h125.7l72.9-126.3H138.4L65.5,152.5z"/>
<polyline class="st0" points="74.9,131.3 205.1,131.3 129.9,1 -0.4,1 74.9,131.3 "/>
<path class="st0" d="M352.9,89.1c6.8-13.6,22.7-48.8,25.3-56.1c0.6-1.5,1.1-2.9,1.1-3.8c0-0.8-0.4-1.8-1.5-2.3
	c-1.4-0.4-3.2-0.4-4.5-0.4c-0.7,0-1.3-0.1-1.3-0.6c0-0.6,0.7-0.8,2.6-0.8c4.7,0,10.2,0.3,11.6,0.3c0.7,0,5.8-0.3,9.2-0.3
	c1.3,0,2,0.2,2,0.7c0,0.5-0.5,0.7-1.4,0.7c-0.8,0-3.4,0-5.7,1.2c-1.5,0.9-3.3,2.6-6.5,9.5c-1.3,2.8-7.2,15-13.2,27.4
	c-7.2,14.8-12.5,25.7-15.2,30.6c-3.3,6.1-3.8,7.7-5,7.7c-1.4,0-2-1.4-4.2-6.3l-28.9-62c-2.6-5.7-4.4-6.8-8.5-7.8
	c-1.8-0.4-3.8-0.4-4.5-0.4c-0.7,0-1-0.3-1-0.7c0-0.6,1.2-0.7,3.1-0.7c5.7,0,12.4,0.3,13.8,0.3c1.2,0,6.5-0.3,11-0.3
	c2.1,0,3.2,0.2,3.2,0.7c0,0.5-0.4,0.7-1.2,0.7c-1.3,0-3.4,0.1-4.5,0.5c-1.3,0.5-1.5,1.3-1.5,2c0,1.3,1.4,4.4,3.2,8.4L352.9,89.1"/>
<path class="st0" d="M545.9,72.3c0,14.9,0.5,21.3,2.6,23.1c1.9,1.6,5,2.3,14.2,2.3c6.3,0,11.5-0.1,14.3-3c1.5-1.6,2.7-4.1,3.1-6.1
	c0.1-0.8,0.3-1.3,1.1-1.3c0.6,0,0.7,0.4,0.7,1.5c0,1.1-0.8,7.2-1.8,10.1c-0.8,2.3-1.2,2.7-7.4,2.7c-17,0-24.8-0.6-31.7-0.6
	c-0.5,0-2.5,0.1-4.8,0.1c-2.4,0.1-5,0.2-6.7,0.2c-1.3,0-1.9-0.2-1.9-0.8c0-0.3,0.2-0.6,0.9-0.6c1.1,0,2.5-0.2,3.6-0.4
	c2.4-0.4,3-2.6,3.4-5.6c0.6-4.2,0.6-12.2,0.6-21.9V54.4c0-15.8,0-18.6-0.2-21.8c-0.2-3.4-1.2-5.1-5.1-5.8c-1-0.2-3-0.3-4-0.3
	c-0.5,0-0.9-0.2-0.9-0.6c0-0.6,0.6-0.8,1.9-0.8c5.3,0,12.8,0.3,13.3,0.3c0.6,0,9.2-0.3,12.8-0.3c1.3,0,1.9,0.2,1.9,0.8
	c0,0.4-0.5,0.6-0.9,0.6c-0.8,0-2.5,0.1-3.9,0.3c-3.4,0.5-4.4,2.2-4.6,5.8c-0.2,3.2-0.2,6.1-0.2,21.8L545.9,72.3"/>
<path class="st0" d="M629.5,54.4c0-15.8,0-18.6-0.2-21.8c-0.2-3.4-1.2-5.1-5.1-5.8c-1-0.2-3-0.3-4-0.3c-0.5,0-0.9-0.2-0.9-0.6
	c0-0.6,0.6-0.8,1.9-0.8c5.3,0,12.7,0.3,13.3,0.3c0.8,0,24.3,0,27-0.1c2.2-0.1,4.1-0.3,5.1-0.5c0.6-0.1,1.1-0.5,1.7-0.5
	c0.3,0,0.5,0.4,0.5,0.9c0,0.7-0.6,1.9-0.9,4.8c-0.1,1-0.3,5.5-0.6,6.7c-0.1,0.5-0.4,1.1-0.8,1.1c-0.7,0-0.9-0.5-0.9-1.3
	c0-0.7-0.1-2.4-0.7-3.6c-0.8-1.6-2-2.8-8.4-3.4c-2-0.2-14.9-0.3-16.2-0.3c-0.5,0-0.7,0.3-0.7,1v27.9c0,0.7,0.1,1,0.7,1
	c1.5,0,16.1,0,18.8-0.2c2.8-0.2,4.5-0.4,5.5-1.4c0.8-0.8,1.3-1.3,1.8-1.3c0.4,0,0.6,0.2,0.6,0.8c0,0.6-0.6,2.3-0.9,5.7
	c-0.2,2-0.5,5.8-0.5,6.5c0,0.8,0,1.9-0.8,1.9c-0.6,0-0.8-0.4-0.8-0.9c0-1,0-2-0.5-3.3c-0.5-1.4-1.5-3.1-6.1-3.5
	c-3.2-0.3-14.9-0.5-16.9-0.5c-0.6,0-0.8,0.3-0.8,0.7v8.9c0,3.4-0.1,15.2,0,17.3c0.3,7,2.1,8.3,13.7,8.3c3.1,0,8.3,0,11.3-1.1
	c3.1-1.1,4.5-3.1,5.3-7.3c0.2-1.1,0.5-1.5,1.1-1.5c0.7,0,0.7,0.8,0.7,1.5c0,0.8-0.9,7.7-1.5,9.8c-0.8,2.6-1.8,2.6-6.4,2.6
	c-17.8,0-25.7-0.6-29.2-0.6c-0.6,0-8,0.3-11.6,0.3c-1.3,0-1.9-0.2-1.9-0.8c0-0.3,0.2-0.6,0.9-0.6c1.1,0,2.5-0.2,3.5-0.4
	c2.4-0.4,3-2.6,3.4-5.6c0.6-4.2,0.6-12.2,0.6-21.9L629.5,54.4"/>
<path class="st0" d="M834.6,87.7c0.2,8.3,1.4,10.9,4.6,11.7c2.2,0.5,4.8,0.6,5.9,0.6c0.6,0,0.9,0.2,0.9,0.6c0,0.6-0.7,0.8-2.1,0.8
	c-6.7,0-11.5-0.3-12.5-0.3c-1.1,0-6,0.3-11.3,0.3c-1.2,0-1.9-0.1-1.9-0.8c0-0.4,0.3-0.6,0.9-0.6c0.9,0,3.1-0.1,4.8-0.6
	c3-0.7,3.5-3.6,3.5-12.8l0.1-57.9c0-3.9,0.3-5.1,1.3-5.1c0.9,0,3,2.2,4.1,3.2c1.8,1.7,19.4,18,37.5,34.7
	c11.7,10.7,24.6,23,28.3,26.4l-1.3-51.4c-0.1-6.6-0.9-8.8-4.6-9.6c-2.1-0.4-4.8-0.5-5.8-0.5c-0.8,0-0.9-0.3-0.9-0.7
	c0-0.6,0.9-0.7,2.4-0.7c5.3,0,11,0.3,12.3,0.3c1.3,0,5.2-0.3,10-0.3c1.3,0,2.1,0.1,2.1,0.7c0,0.4-0.5,0.7-1.3,0.7
	c-0.6,0-1.4,0-2.8,0.3c-3.9,0.7-4.4,2.9-4.4,9L904.4,95c0,6.7-0.2,7.2-1.1,7.2c-0.9,0-2.4-1.1-8.6-6.5c-1.3-1-18.3-15.9-30.8-27.4
	c-13.7-12.6-27-25.4-30.8-29L834.6,87.7"/>
<path class="st0" d="M992,72.1c0,9.7,0,17.7,0.6,21.9c0.4,2.9,1.1,5.2,4.6,5.6c1.6,0.2,4.3,0.4,5.3,0.4c0.7,0,0.9,0.3,0.9,0.6
	c0,0.5-0.6,0.8-1.9,0.8c-6.5,0-13.9-0.3-14.5-0.3c-0.6,0-8,0.3-11.6,0.3c-1.3,0-1.9-0.2-1.9-0.8c0-0.3,0.2-0.6,0.9-0.6
	c1.1,0,2.5-0.2,3.5-0.4c2.4-0.4,3-2.6,3.4-5.6c0.6-4.2,0.6-12.2,0.6-21.9V29.4l-17.5,0.2c-7.3,0.1-10.2,0.8-12,3.2
	c-1.3,1.7-1.7,2.4-2,3.1c-0.3,0.8-0.7,1-1.2,1c-0.4,0-0.6-0.3-0.6-0.9c0-1,2.4-9.7,2.6-10.5c0.2-0.6,0.7-1.9,1.2-1.9
	c0.8,0,2,1,5.2,1.2c3.4,0.3,7.9,0.5,9.3,0.5h44.3c7.6,0,10.7-1,11.7-1c0.6,0,0.6,0.6,0.6,1.2c0,3-0.3,10-0.3,11.1
	c0,0.9-0.4,1.3-0.8,1.3c-0.6,0-0.8-0.3-1-1.7l-0.1-1.1c-0.5-3-3.2-5.4-14.5-5.6L992,29.4L992,72.1"/>
</svg>
