<?xml version="1.0" encoding="UTF-8"?>
<svg width="1322px" height="450px" viewBox="0 0 1322 450" version="1.1" xmlns="http://www.w3.org/2000/svg" xmlns:xlink="http://www.w3.org/1999/xlink">
    <!-- Generator: Sketch 48.2 (47327) - http://www.bohemiancoding.com/sketch -->
    <title>logo2</title>
    <desc>Created with Sketch.</desc>
    <defs></defs>
    <g id="Artboard-2" stroke="none" stroke-width="1" fill="none" fill-rule="evenodd" transform="translate(-88.000000, -77.000000)">
        <g id="logo2" transform="translate(88.000000, 77.000000)">
            <path d="M160.237435,231.630352 L149.13187,196.727148 L66.6333889,196.727148 L55.5278241,231.630352 L0,231.630352 L75.5178407,9.51905556 L140.247419,9.51905556 L215.765259,231.630352 L160.237435,231.630352 Z M81.8638778,149.13187 L133.901381,149.13187 L107.88263,67.5852944 L81.8638778,149.13187 Z M342.640671,72.9794259 L388.966741,72.9794259 L388.966741,223.697806 C388.966741,277.004517 347.400199,299.532948 305.199053,299.532948 C272.19966,299.532948 244.594399,287.158176 229.998514,261.139424 L270.613151,237.659087 C276.641886,248.764652 285.84364,257.649104 306.785562,257.649104 C328.996691,257.649104 342.640671,246.226237 342.640671,223.697806 L342.640671,209.10192 C332.16971,222.111296 316.939221,229.726541 296.314601,229.726541 C251.257738,229.726541 218.258345,192.919526 218.258345,149.13187 C218.258345,105.344215 251.257738,68.5372 296.314601,68.5372 C316.939221,68.5372 332.16971,76.1524444 342.640671,89.1618204 L342.640671,72.9794259 Z M304.247147,185.938885 C326.775578,185.938885 342.640671,171.025698 342.640671,149.13187 C342.640671,127.238043 326.775578,112.324856 304.247147,112.324856 C281.718715,112.324856 265.853623,127.238043 265.853623,149.13187 C265.853623,171.025698 281.718715,185.938885 304.247147,185.938885 Z M445.401142,59.0181444 C429.853351,59.0181444 416.843975,46.0087685 416.843975,30.4609778 C416.843975,14.913187 429.853351,1.90381111 445.401142,1.90381111 C460.948933,1.90381111 473.958309,14.913187 473.958309,30.4609778 C473.958309,46.0087685 460.948933,59.0181444 445.401142,59.0181444 Z M421.603503,231.630352 L421.603503,72.9794259 L469.198781,72.9794259 L469.198781,231.630352 L421.603503,231.630352 Z M501.835543,231.630352 L501.835543,0 L549.430821,0 L549.430821,231.630352 L501.835543,231.630352 Z M624.58603,171.343 C630.614766,187.842696 645.210651,193.55413 662.662253,193.55413 C675.671629,193.55413 686.777193,188.4773 693.12323,181.496659 L731.199453,203.390487 C715.651662,224.967013 692.171325,236.072578 662.027649,236.072578 C607.769032,236.072578 574.135036,199.582865 574.135036,152.304889 C574.135036,105.026913 608.403636,68.5372 658.537329,68.5372 C704.863399,68.5372 739.131999,104.392309 739.131999,152.304889 C739.131999,158.968228 738.497395,165.314265 737.228188,171.343 L624.58603,171.343 Z M623.634125,135.805193 L691.854023,135.805193 C686.777193,117.401685 672.49861,110.738346 658.220027,110.738346 C640.133821,110.738346 628.076351,119.622798 623.634125,135.805193 Z" id="Gilroy" fill="#262626"></path>
            <path d="M59.6541747,323.823476 C82.6666042,323.823476 101.638683,344.025227 101.638683,370.19967 C101.638683,396.374113 82.6666042,416.575864 59.6541747,416.575864 C47.8844589,416.575864 39.2767563,412.535513 33.4797321,405.860152 L33.4797321,449.25 L7.12962212,449.25 L7.12962212,326.28282 L33.4797321,326.28282 L33.4797321,334.539188 C39.2767563,327.863827 47.8844589,323.823476 59.6541747,323.823476 Z M54.3841527,391.631093 C66.5052033,391.631093 75.2885733,383.374725 75.2885733,370.19967 C75.2885733,357.024615 66.5052033,348.768247 54.3841527,348.768247 C42.2631021,348.768247 33.4797321,357.024615 33.4797321,370.19967 C33.4797321,383.374725 42.2631021,391.631093 54.3841527,391.631093 Z M138.855077,380.739714 C142.192757,389.874419 150.273458,393.036432 159.935165,393.036432 C167.137528,393.036432 173.285887,390.225754 176.799235,386.361071 L197.879323,398.482121 C189.271621,410.427505 176.272233,416.575864 159.58383,416.575864 C129.544705,416.575864 110.92396,396.374113 110.92396,370.19967 C110.92396,344.025227 129.896039,323.823476 157.651489,323.823476 C183.298929,323.823476 202.271008,343.673893 202.271008,370.19967 C202.271008,373.888685 201.919673,377.402033 201.217004,380.739714 L138.855077,380.739714 Z M138.328075,361.064965 L176.096566,361.064965 C173.285887,350.876256 165.380854,347.187241 157.475821,347.187241 C147.462779,347.187241 140.787418,352.105928 138.328075,361.064965 Z M257.229809,416.575864 C231.406701,416.575864 210.677948,396.374113 210.677948,370.19967 C210.677948,344.025227 231.406701,323.823476 257.229809,323.823476 C283.052917,323.823476 303.78167,344.025227 303.78167,370.19967 C303.78167,396.374113 283.052917,416.575864 257.229809,416.575864 Z M257.229809,390.928423 C268.64819,390.928423 277.43156,382.672055 277.43156,370.19967 C277.43156,357.727285 268.64819,349.470917 257.229809,349.470917 C245.811428,349.470917 237.028058,357.727285 237.028058,370.19967 C237.028058,382.672055 245.811428,390.928423 257.229809,390.928423 Z M369.983184,323.823476 C392.995614,323.823476 411.967693,344.025227 411.967693,370.19967 C411.967693,396.374113 392.995614,416.575864 369.983184,416.575864 C358.213469,416.575864 349.605766,412.535513 343.808742,405.860152 L343.808742,449.25 L317.458632,449.25 L317.458632,326.28282 L343.808742,326.28282 L343.808742,334.539188 C349.605766,327.863827 358.213469,323.823476 369.983184,323.823476 Z M364.713162,391.631093 C376.834213,391.631093 385.617583,383.374725 385.617583,370.19967 C385.617583,357.024615 376.834213,348.768247 364.713162,348.768247 C352.592112,348.768247 343.808742,357.024615 343.808742,370.19967 C343.808742,383.374725 352.592112,391.631093 364.713162,391.631093 Z M425.644655,414.11652 L425.644655,285.879318 L451.994765,285.879318 L451.994765,414.11652 L425.644655,414.11652 Z M493.602843,380.739714 C496.940524,389.874419 505.021224,393.036432 514.682931,393.036432 C521.885295,393.036432 528.033654,390.225754 531.547002,386.361071 L552.62709,398.482121 C544.019387,410.427505 531.019999,416.575864 514.331596,416.575864 C484.292471,416.575864 465.671727,396.374113 465.671727,370.19967 C465.671727,344.025227 484.643806,323.823476 512.399255,323.823476 C538.046695,323.823476 557.018775,343.673893 557.018775,370.19967 C557.018775,373.888685 556.66744,377.402033 555.96477,380.739714 L493.602843,380.739714 Z M493.075841,361.064965 L530.844332,361.064965 C528.033654,350.876256 520.128621,347.187241 512.223588,347.187241 C502.210546,347.187241 495.535185,352.105928 493.075841,361.064965 Z M638.30259,351.93026 C638.30259,361.943302 681.516771,355.267941 681.516771,387.76641 C681.516771,407.968161 663.95003,416.575864 644.977951,416.575864 C627.411211,416.575864 614.060489,409.900502 607.20946,395.671443 L630.046222,382.672055 C632.329898,389.347417 637.248586,393.036432 644.977951,393.036432 C651.301978,393.036432 654.463991,391.104091 654.463991,387.590743 C654.463991,377.929036 611.24981,383.02339 611.24981,352.63293 C611.24981,333.485183 627.411211,323.823476 645.680621,323.823476 C659.90968,323.823476 672.557733,330.147503 679.935764,342.619888 L657.450337,354.740939 C654.990993,350.173586 651.477645,347.011573 645.680621,347.011573 C641.113268,347.011573 638.30259,348.768247 638.30259,351.93026 Z M734.718897,416.575864 C708.89579,416.575864 688.167036,396.374113 688.167036,370.19967 C688.167036,344.025227 708.89579,323.823476 734.718897,323.823476 C760.542005,323.823476 781.270758,344.025227 781.270758,370.19967 C781.270758,396.374113 760.542005,416.575864 734.718897,416.575864 Z M734.718897,390.928423 C746.137278,390.928423 754.920648,382.672055 754.920648,370.19967 C754.920648,357.727285 746.137278,349.470917 734.718897,349.470917 C723.300516,349.470917 714.517146,357.727285 714.517146,370.19967 C714.517146,382.672055 723.300516,390.928423 734.718897,390.928423 Z M794.94772,414.11652 L794.94772,285.879318 L821.29783,285.879318 L821.29783,414.11652 L794.94772,414.11652 Z M896.107047,326.28282 L922.457157,326.28282 L922.457157,414.11652 L896.107047,414.11652 L896.107047,405.860152 C891.364027,412.359846 882.580657,416.575864 870.986609,416.575864 C853.244202,416.575864 838.136805,403.927811 838.136805,380.212712 L838.136805,326.28282 L864.486915,326.28282 L864.486915,376.348029 C864.486915,387.239408 871.337944,392.333762 879.769979,392.333762 C889.431686,392.333762 896.107047,386.712406 896.107047,374.24002 L896.107047,326.28282 Z M991.996352,351.578926 L973.90261,351.578926 L973.90261,382.672055 C973.90261,390.225754 980.402304,390.928423 991.996352,390.225754 L991.996352,414.11652 C957.565542,417.629868 947.5525,407.265491 947.5525,382.672055 L947.5525,351.578926 L933.499108,351.578926 L933.499108,326.28282 L947.5525,326.28282 L947.5525,309.594417 L973.90261,301.689384 L973.90261,326.28282 L991.996352,326.28282 L991.996352,351.578926 Z M1018.84837,318.553454 C1010.24067,318.553454 1003.0383,311.351091 1003.0383,302.743388 C1003.0383,294.135686 1010.24067,286.933322 1018.84837,286.933322 C1027.45607,286.933322 1034.65843,294.135686 1034.65843,302.743388 C1034.65843,311.351091 1027.45607,318.553454 1018.84837,318.553454 Z M1005.67331,414.11652 L1005.67331,326.28282 L1032.02342,326.28282 L1032.02342,414.11652 L1005.67331,414.11652 Z M1092.25225,416.575864 C1066.42914,416.575864 1045.70039,396.374113 1045.70039,370.19967 C1045.70039,344.025227 1066.42914,323.823476 1092.25225,323.823476 C1118.07535,323.823476 1138.80411,344.025227 1138.80411,370.19967 C1138.80411,396.374113 1118.07535,416.575864 1092.25225,416.575864 Z M1092.25225,390.928423 C1103.67063,390.928423 1112.454,382.672055 1112.454,370.19967 C1112.454,357.727285 1103.67063,349.470917 1092.25225,349.470917 C1080.83387,349.470917 1072.0505,357.727285 1072.0505,370.19967 C1072.0505,382.672055 1080.83387,390.928423 1092.25225,390.928423 Z M1203.95162,323.823476 C1221.69403,323.823476 1236.80142,336.471529 1236.80142,360.186628 L1236.80142,414.11652 L1210.45131,414.11652 L1210.45131,364.051311 C1210.45131,353.159932 1203.60028,348.065578 1195.16825,348.065578 C1185.50654,348.065578 1178.83118,353.686934 1178.83118,366.15932 L1178.83118,414.11652 L1152.48107,414.11652 L1152.48107,326.28282 L1178.83118,326.28282 L1178.83118,334.539188 C1183.5742,328.039494 1192.35757,323.823476 1203.95162,323.823476 Z M1278.58517,351.93026 C1278.58517,361.943302 1321.79935,355.267941 1321.79935,387.76641 C1321.79935,407.968161 1304.23261,416.575864 1285.26053,416.575864 C1267.69379,416.575864 1254.34307,409.900502 1247.49204,395.671443 L1270.3288,382.672055 C1272.61248,389.347417 1277.53116,393.036432 1285.26053,393.036432 C1291.58456,393.036432 1294.74657,391.104091 1294.74657,387.590743 C1294.74657,377.929036 1251.53239,383.02339 1251.53239,352.63293 C1251.53239,333.485183 1267.69379,323.823476 1285.9632,323.823476 C1300.19226,323.823476 1312.84031,330.147503 1320.21834,342.619888 L1297.73291,354.740939 C1295.27357,350.173586 1291.76022,347.011573 1285.9632,347.011573 C1281.39585,347.011573 1278.58517,348.768247 1278.58517,351.93026 Z" id="Gilroy-Copy" fill="#262626"></path>
        </g>
    </g>
</svg>