<svg xmlns="http://www.w3.org/2000/svg" width="276" height="32" viewBox="0 0 276 32"><path fill="#272727" d="M136.104 8.644l2.771.864c.312-.19.678-.416 1.231-.755v5.028h-.642c-.256-.675-.463-1.355-.767-1.99-.662-1.38-1.698-2.284-3.305-2.334-1.581-.049-2.88.567-3.644 1.944-.489.882-.869 1.89-1.017 2.883-.34 2.279-.195 4.527 1.244 6.488 1.29 1.759 3.783 2.312 5.678 1.236.25-.142.491-.491.531-.773.096-.678.092-1.374.088-2.062-.007-1.199-.292-1.479-1.485-1.687-.343-.06-1.005.13-.807-.692h5.956c.232.496-.057.606-.438.689-1.164.252-1.316.441-1.316 1.643-.001.836.035 1.675.018 2.512-.005.203-.107.525-.252.588-2.211.943-4.497 1.529-6.881.809-2.912-.883-4.435-3.017-4.759-5.947-.305-2.77.417-5.292 2.772-6.985.976-.703 2.255-.985 3.397-1.458h1.627zM90.355 8.773l7.932 5.317c-.241.378-.472.744-.706 1.107-1.559 2.418-3.123 4.832-4.671 7.258-.228.356-.476.564-.926.584-1.598.065-3.195.182-4.794.236-.194.007-.506-.195-.578-.376a94.205 94.205 0 0 1-1.414-3.791.862.862 0 0 1 .048-.617c1.682-3.222 3.379-6.436 5.109-9.718m-.338 11.668c-.004-.809-.667-1.477-1.444-1.457-.757.02-1.442.747-1.419 1.507.023.726.738 1.439 1.428 1.425a1.474 1.474 0 0 0 1.435-1.475M175.582 23.06c-.615.195-.907-.029-1.206-.438-2.663-3.629-5.35-7.239-8.105-10.958-.033.246-.07.392-.07.537.015 2.635.009 5.271.064 7.905.027 1.373.443 1.812 1.775 2.134.368.09.825.092.611.723h-5.797c.25-.305.365-.592.558-.657 1.716-.589 1.808-.619 1.851-2.416.06-2.585.057-5.173.03-7.759-.014-1.371-.565-1.963-2.043-2.419-.485-.149-.485-.149-.438-.735 1.22 0 2.446-.023 3.672.021.207.007.451.266.6.466 2.389 3.222 4.762 6.453 7.141 9.681.101.139.213.268.389.484.035-.236.076-.385.076-.535.002-2.241 0-4.483 0-6.725l-.002-.222c-.047-1.632-.379-2.071-1.972-2.433-.427-.097-.637-.208-.426-.737 1.741 0 3.51-.006 5.278.013.109.001.32.212.305.284-.034.148-.165.329-.303.386-.268.112-.568.14-.853.218-.588.162-.911.574-.983 1.16a15.5 15.5 0 0 0-.145 1.837c-.014 3.128-.007 6.257-.007 9.386v.799zM183.06 15.298c2.621.433 3.353.027 3.982-2.192h.605v5.583c-.306-.207-.633-.306-.67-.472-.502-2.176-1.267-2.095-2.861-2.097h-1.002c0 1.8-.049 3.517.044 5.225.017.305.601.797.952.824 1.171.091 2.355.029 3.533-.012.642-.021 1.103-.393 1.41-.938.338-.599.633-1.221.988-1.809.131-.218.378-.363.572-.542l.225.138-.221 3.929h-11.826c.275-.279.402-.471.582-.57.163-.09.38-.094.576-.112.683-.063 1.031-.463 1.033-1.117.014-3.373.021-6.747-.002-10.121-.006-.818-.342-1.102-1.489-1.304-.453-.079-.623-.212-.45-.697h10.701v3.252l-.165.162c-.204-.184-.492-.328-.599-.557-.688-1.474-1.694-2.367-3.444-2.197-.8.079-1.614.014-2.476.014v5.61zM127.786 22.96h-5.639c-.159-.35-.121-.545.34-.614 1.956-.298 1.421-.653.986-1.9-.265-.763-.385-1.809-.938-2.175-.588-.391-1.608-.139-2.44-.152-.64-.012-1.284-.044-1.919.019-.248.024-.6.229-.685.442-.313.769-.514 1.582-.792 2.366-.228.644.041.99.625 1.173.304.094.633.121.922.245.186.081.32.283.477.431l-.132.166h-5.321c.244-.297.364-.595.534-.627 1.106-.213 1.655-.965 2.031-1.933a1735.48 1735.48 0 0 1 4.314-11.026c.093-.235.385-.537.59-.541.194-.004.488.307.58.541 1.471 3.741 2.927 7.488 4.362 11.244.329.862.808 1.492 1.762 1.702.185.041.318.317.476.485l-.133.154m-5.506-5.647l-2.179-5.583-2.133 5.583h4.312zM113.597 9.038v3.929c-.344-.291-.575-.429-.727-.629-.159-.211-.235-.484-.361-.722-.95-1.806-1.846-2.229-3.964-1.838-.01.226-.03.467-.03.707-.002 3.35-.003 6.7-.001 10.05.001 1.219.235 1.465 1.445 1.726.342.073.995-.103.807.698h-6.483l-.145-.178c.165-.142.311-.373.498-.412 1.868-.397 1.869-.39 1.869-2.281V9.778c-2.503-.265-3.043-.115-4.247 2.375-.176.362-.255.781-.845.534V9.038h12.184zM154.276 18.945l-.309 4.01h-10.803l-.168-.143c.158-.156.293-.405.479-.452 1.401-.358 1.468-.426 1.468-1.885v-8.862c0-1.338-.174-1.55-1.436-1.927-.209-.063-.369-.296-.551-.45l.135-.212h5.761c.142.375.135.588-.384.668-1.366.211-1.508.408-1.51 1.767 0 2.856 0 5.71.002 8.567 0 .271.002.542.021.812.087 1.168.301 1.371 1.491 1.432l.147.008c2.969.136 3.424-.127 4.745-2.8.182-.36.287-.771.912-.533M161.598 22.959h-6.175l-.129-.168c.16-.144.301-.335.488-.414.219-.091.479-.09.724-.118.638-.072.999-.443 1.001-1.066.014-3.42.01-6.838 0-10.258-.002-.485-.238-.843-.736-.983-.283-.079-.574-.143-.841-.262-.205-.091-.376-.256-.562-.389.224-.109.444-.306.672-.313 1.082-.033 2.164-.015 3.248-.015h2.302c.135.429.123.654-.392.712-1.531.171-1.658.339-1.658 1.902 0 2.977-.002 5.953 0 8.931 0 1.336.133 1.479 1.447 1.77.312.067.887-.017.611.671"/></svg>