<svg xmlns="http://www.w3.org/2000/svg" width="272.778" height="147.44" viewBox="0 0 272.778 147.44"><path fill="#272727" d="M49.624 147.44c-2.766-2.843-5.627-5.6-8.278-8.547-5.232-5.815-9.845-12.117-13.412-19.083-2.536-4.951-4.855-10.041-6.862-15.227-1.426-3.685-2.242-7.613-3.204-11.465-2.441-9.765-2.934-19.727-1.999-29.672.588-6.253 1.795-12.521 3.447-18.585 2.358-8.651 5.986-16.848 10.803-24.468.228-.36.451-.8.464-1.208.183-5.868 3.389-10.095 7.648-13.593 2.341-1.921 5.051-3.394 7.612-5.042.355-.227.816-.292 1.573-.55-.757 1.82-1.309 3.443-2.082 4.952-2.376 4.637-5.104 9.037-9.086 12.514-.476.414-.915.936-1.471 1.182-2.647 1.165-3.85 3.565-5.131 5.886-3.069 5.564-5.7 11.342-7.564 17.411-1.276 4.153-2.191 8.425-3.11 12.677-1.377 6.37-1.989 12.846-1.634 19.346.271 4.951.92 9.891 1.55 14.815.871 6.821 2.961 13.344 5.503 19.688 3.036 7.579 7.007 14.686 11.814 21.307a107.533 107.533 0 0 0 14.528 16.285l-.815 1.377h-.294zM222.678 147.44c-.221-.394-.441-.787-.811-1.441 2.18-2.118 4.521-4.215 6.658-6.504 6.014-6.446 11.045-13.611 15.268-21.351.92-1.688 2.076-3.26 2.877-4.998.8-1.736 1.294-3.614 1.919-5.432 1.036-3.017 2.233-5.989 3.06-9.063.943-3.511 1.549-7.111 2.309-10.671 1.494-6.988 1.537-14.077 1.275-21.158-.128-3.492-.597-6.994-1.215-10.438-.761-4.247-1.641-8.493-2.839-12.634-1.06-3.666-2.58-7.202-3.981-10.762-.949-2.413-1.927-4.829-3.105-7.133-1.289-2.519-2.695-4.928-5.232-6.581-4.748-3.093-7.931-7.613-10.527-12.554-1.07-2.038-1.983-4.158-2.969-6.241.113-.139.227-.277.338-.416 1.373.684 2.811 1.262 4.105 2.07 4.805 2.998 9.034 6.594 11.191 12.028.633 1.596.897 3.352 1.209 5.056.181.985.304.901 1.037 2.177.107.186.467.752.567.964 2.171 4.548 4.524 9.02 6.439 13.674a95.254 95.254 0 0 1 4.106 12.377c.982 3.795 1.629 7.711 2.031 11.614.501 4.851.922 9.752.782 14.615-.142 4.897-.831 9.805-1.621 14.652-.66 4.058-1.621 8.092-2.8 12.031a72.81 72.81 0 0 1-3.959 10.298c-2.152 4.538-4.456 9.029-7.04 13.333-4.691 7.812-10.558 14.711-17.175 20.973-.482.456-.877 1.006-1.311 1.513h-.586zM8.504 118.619c10.993 2.4 20.715 6.632 27.583 16.059-2.739 1.532-5.374 1.319-8.053.582-2.238-.615-4.258-1.618-6.328-2.705-5.828-3.062-9.645-7.927-13.093-13.24-.072-.111-.048-.283-.109-.696M264.139 118.804c-3.283 5.993-7.717 10.811-13.603 14.186-2.72 1.559-5.698 2.522-8.806 2.762-1.623.125-3.295-.387-4.977-.853 6.728-9.648 16.457-13.893 27.386-16.095M24.218 116.507c-4.507.638-8.325-.95-11.663-3.789-4.963-4.222-8.419-9.495-10.475-15.683-.165-.498-.382-.979-.583-1.489 6.146-.235 22.78 15.119 22.721 20.961M248.307 116.475c1.853-5.233 5.117-9.329 9.149-12.82 4.074-3.528 8.542-6.478 13.812-8.547-1.069 3.493-2.361 6.697-4.277 9.638-2.778 4.263-5.96 8.119-10.637 10.446-2.531 1.259-5.189 1.725-8.047 1.283M0 70.898c8.343 5.014 16.579 16.738 17.005 25.359-2.657-.374-5.05-1.262-7.114-2.931-4.673-3.777-7.185-8.898-8.714-14.539-.551-2.034-.606-4.201-.897-6.308-.07-.505-.177-1.005-.28-1.581M272.778 70.832c-.215 5.714-1.648 11.104-4.585 15.98-.921 1.531-1.947 3.125-3.528 4.259-1.133.812-1.818 2.292-2.99 2.993-1.746 1.044-3.744 1.664-5.674 2.482-1.584-5.908 9.574-22.682 16.777-25.714M269.252 47.094c.166 1.708.338 3.048.42 4.393.359 5.884-.518 11.513-3.529 16.685-1.504 2.582-3.513 4.595-6.311 5.794-1.085.466-1.441.108-1.505-.916-.263-4.251.636-8.285 2.149-12.235a40.776 40.776 0 0 1 7.471-12.372c.156-.179.297-.372.459-.545.167-.177.35-.336.846-.804M13.848 74.26c-3.204-.935-5.431-2.973-7.022-5.646-3.431-5.765-4.512-12.037-3.66-18.666.111-.861.174-1.729.267-2.678 6.847 5.903 12.813 20.582 10.415 26.99"/><path fill="#272727" d="M39.927 132.299c-7.744-8.335-4.811-19.929 2.036-26.095 1.869 5.876 2.689 11.802 1.799 17.899-.618 4.241-2.035 6.385-3.835 8.196M28.975 114.685c-5.791-7.043-2.088-19.992 6.859-25.511 0 2.473-.017 4.735.003 6.995.039 4.469-.597 8.819-2.411 12.93-.986 2.233-2.405 4.172-4.451 5.586M12.105 25.23c4.896 6.087 7.14 23.283 3.605 27.582-3.727-2.298-5.534-5.772-6.283-9.968-.982-5.498-.008-10.75 1.822-15.911.193-.543.52-1.039.856-1.703M230.655 106.181c7.193 6.085 9.156 19.493 2.149 26.091-1.38-1.204-1.94-2.826-2.702-4.453-1.546-3.307-1.771-6.688-1.578-10.171.106-1.941.375-3.886.733-5.798.355-1.89.914-3.741 1.398-5.669M256.686 52.957c-3.246-10.005-.619-19.001 4.086-27.847.713 2.251 1.599 4.464 2.102 6.76 1.011 4.608 1.223 9.256-.325 13.817-1.04 3.067-2.842 5.559-5.863 7.27M239.842 71.136c9.191 3.778 15.258 15.531 11.159 23.927-3.069-1.389-5.015-3.917-6.556-6.721-2.838-5.17-3.947-10.866-4.639-16.657-.015-.142.017-.29.036-.549M32.805 71.173c.652 8.74-5.585 22.059-11.127 23.76-3.871-7.971 1.518-19.756 11.127-23.76M243.767 114.242c-2.644-1.322-3.517-3.819-4.623-6.188-2.757-5.905-2.622-12.099-1.978-18.356.009-.077.097-.147.146-.221 6.365 3.683 13.2 15.987 6.455 24.765M22.237 32.772c-3.396-3.651-4.217-7.647-3.603-12.205.715-5.309 2.657-10.056 5.702-14.402.255-.365.561-.694 1.034-1.274 2.412 9.831 2.318 19.014-3.133 27.881M247.5 4.947c2.418 3.272 4.262 6.621 5.441 10.375.967 3.077 1.341 6.176 1.186 9.361-.121 2.48-.897 4.739-2.428 6.725-.326.424-.551.928-.844 1.433-4.985-5.783-6.396-19.361-3.355-27.894M253.863 74.385c-9.101-4.267-12.276-12.516-15.385-21.08 7.968 1.434 17.737 10.91 15.385 21.08M18.904 74.246c-.842-1.615-.756-3.273-.425-4.876 1.589-7.677 6.409-12.581 13.49-15.499.574-.236 1.147-.475 2.037-.844-.483 3.121-1.681 5.719-2.941 8.231-2.74 5.46-5.964 10.548-12.161 12.988M39.476 35.595c-4.545 8.157-9.292 15.537-18.903 18.142-.185-2.501.427-4.653 1.523-6.66 2.89-5.298 7.498-8.514 13.062-10.478 1.261-.446 2.621-.619 4.318-1.004M252.244 53.617c-6.985-1.358-18.647-12.757-18.386-17.683 1.757.448 3.604.721 5.296 1.386 6.09 2.396 10.666 6.386 12.671 12.826.324 1.043.277 2.202.419 3.471M26.712 33.905c.736-7.778 11.798-15.04 21.146-14.488-3.107 5.613-14.507 15.523-21.146 14.488M246.094 34.035c-2.08.091-3.891-.417-5.737-1.443-3.921-2.18-7.882-4.271-11.028-7.542-1.633-1.697-3.109-3.544-4.723-5.399 7.667-1.597 19.836 6.08 21.488 14.384"/></svg>