<svg xmlns="http://www.w3.org/2000/svg" width="467.629" height="38.018" viewBox="0 0 467.629 38.018"><g fill="#272727"><path d="M399.412 24.019c.704 2.048 1.192 3.947 2.005 5.695.815 1.756 1.953 3.362 2.956 5.045-10.297 7.585-26.272 1.2-28.801-11.613-2.414-12.233 6.558-23.302 18.739-23.12 10.015.15 18.375 8.553 18.457 18.553.009 1.109-.023 2.219.013 3.327.082 2.566 1.752 4.445 4.112 4.673 2.346.225 4.202-1.336 4.674-4.002.135-.764.127-1.559.128-2.338.01-6.388.006-12.775.006-19.296h11.294c.04.349.119.718.12 1.087.007 6.786.076 13.574-.013 20.359-.118 9.01-7.359 15.982-16.076 15.613-7.542-.318-13.701-5.703-15.198-13.376a51.886 51.886 0 0 1-.793-5.994c-.256-3.352-2.316-5.92-5.558-6.712-2.865-.701-6.134.776-7.659 3.462-1.619 2.851-1.121 6.566 1.185 8.831 2.266 2.227 5.65 2.685 8.473 1.111.664-.369 1.268-.85 1.936-1.305M167.012 37.223l-3.295-14.456-.339-.02-3.391 14.472c-4.103 0-8.194.042-12.284-.063-.418-.011-1.029-.84-1.187-1.393-2.911-10.236-5.768-20.488-8.634-30.738-.366-1.309-.725-2.619-1.162-4.204 4.32 0 8.513-.033 12.702.063.346.009.843.856.979 1.389 1.351 5.281 2.638 10.579 3.953 15.87.087.352.263.68.54 1.38 1.3-6.02 2.557-11.632 3.69-17.269.233-1.161.681-1.495 1.791-1.465 2.411.064 4.827.062 7.239 0 1.058-.026 1.429.362 1.657 1.396 1.229 5.572 2.558 11.121 4.255 16.72L177.624.962h12.406c-.13.543-.234 1.08-.388 1.603-3.231 11.021-6.496 22.034-9.664 33.074-.362 1.265-.877 1.637-2.131 1.61-3.577-.076-7.158-.026-10.835-.026M337.912 13.661c-4.034 0-8.06.017-12.083-.026-.396-.004-.826-.318-1.175-.577-4.72-3.513-10.431-1.313-11.644 4.496-1.186 5.677 2.818 10.218 8.411 9.474 2.355-.313 3.979-1.646 5.061-4.124h-7.548v-6.685h19.592c1.895 9.575-5.223 19.786-14.899 21.387-11.103 1.836-21.057-5.255-22.362-16.291-1.207-10.21 5.716-20.179 17.605-21.256 8.574-.777 18.583 6.293 19.042 13.602M354.034 25.709v11.399h-12.043V1.092c.053-.049.147-.215.24-.214 6.898.069 13.82-.173 20.686.342 5.159.387 8.471 3.849 9.839 8.781 1.417 5.106-.112 9.492-4.046 13.034-.38.342-.789.651-1.254 1.032l6.873 13.155c-3.561 0-6.844-.172-10.1.058-2.357.166-3.638-.506-4.478-2.802-1-2.732-2.424-5.314-3.749-7.919-.277-.541-.927-.892-1.404-1.33l-.564.48m.126-8.159c1.661 0 3.099.139 4.496-.037 1.617-.202 2.761-1.11 2.806-2.923.045-1.814-1.042-2.816-2.66-3.041-1.499-.209-3.051-.045-4.642-.045v6.046zM226.392 18.991c.01 10.466-8.434 19.017-18.774 19.016-10.358-.004-18.836-8.542-18.834-18.972.002-10.468 8.423-18.986 18.791-19.01 10.358-.023 18.808 8.494 18.817 18.966m-11.756.119c.014-4.142-3.021-7.317-7.001-7.328-3.99-.011-7.094 3.161-7.095 7.25 0 4.094 3.096 7.235 7.113 7.217 3.926-.019 6.97-3.13 6.983-7.139M73.946 37.222c-4.396 0-8.431.039-12.463-.05-.502-.011-1.246-.608-1.435-1.103-.572-1.497-.927-3.077-1.374-4.656H49.97l-1.826 5.758H35.578c.084-.508.104-.993.247-1.438 3.577-11.109 7.189-22.207 10.72-33.331.379-1.193.846-1.646 2.126-1.623 4.491.078 8.984.03 13.615.03 3.867 12.076 7.716 24.101 11.66 36.413M56.879 23.434l-2.442-8.941H54.1l-2.382 8.941h5.161zM37.171 14.924c-3.932 0-7.713.035-11.492-.039-.543-.011-1.171-.449-1.599-.857-3.048-2.913-7.292-3.021-10.16-.207-2.852 2.797-2.867 7.577-.035 10.373 2.862 2.823 7.127 2.731 10.168-.157.469-.446 1.169-.899 1.773-.913 3.713-.083 7.429-.042 11.147-.042-.302 7.431-9.057 14.774-17.687 14.924C9.477 38.176.872 30.47.072 20.799-.802 10.229 6.377 1.374 17.293.155c9.689-1.082 18.25 6.008 19.878 14.769M104.765 37.081c0-3.271-.065-6.396.052-9.515.025-.666.605-1.405 1.108-1.943 3.61-3.858 7.27-7.672 10.909-11.504.471-.495.917-1.014 1.669-1.848h-13.05V.938h28.515c0 3.414.047 6.846-.049 10.273-.015.522-.632 1.082-1.067 1.53-3.637 3.743-7.297 7.463-10.948 11.193-.477.486-.941.984-1.721 1.802h13.647V37.08h-29.065zM450.178 31.144v5.941h-12.131V.464c6.343.368 12.675.099 18.737 1.251 7.328 1.393 11.282 7.957 10.806 15.903-.379 6.325-5.83 11.958-12.615 12.991-1.532.234-3.083.347-4.797.535m.176-10.882c2.194.33 4.115.239 5.271-1.801.938-1.653.92-3.365-.157-4.978-1.245-1.861-3.074-1.894-5.114-1.584v8.363zM270.532 16.454h14.064v10.981h-14.177v9.659h-12.163V.917h26.745v11.229h-14.469zM69.41 12.295V.937h31.983v11.211h-9.734v24.975h-12.34V12.295zM241.766 25.739h12.726v11.328h-24.796V.95h12.07z"/></g></svg>