<svg xmlns="http://www.w3.org/2000/svg" width="245.2" height="38.64" viewBox="0 0 245.2 38.64"><path fill="#272727" d="M0 38.163V0h19.082c8.587 0 13.357 5.724 13.357 12.88 0 6.679-4.771 12.403-13.357 12.403h-9.064v12.88H0zM22.421 12.88c0-2.862-1.908-4.294-4.771-4.294H9.541v8.11h8.108c2.864 0 4.772-1.431 4.772-3.816M58.199 38.163l-6.201-12.88h-5.247v12.88H36.732V0h19.082c8.587 0 13.357 5.724 13.357 12.88 0 6.679-4.294 10.018-7.633 11.449l7.633 13.834H58.199zm.954-25.283c0-2.386-2.385-4.294-4.771-4.294h-7.631v8.11h7.631c2.387 0 4.771-1.431 4.771-3.816M100.656 38.163l-1.908-5.725H83.482l-1.908 5.725H70.603L84.914 0h12.402l14.312 38.163h-10.972zM91.115 9.54l-4.771 14.313h9.542L91.115 9.54zM122.123 38.163L107.812 0h10.972l9.541 27.668L137.866 0h10.972l-14.312 38.163zM151.7 38.163V0h16.22c11.926 0 20.513 7.155 20.513 19.081 0 11.927-8.587 19.082-20.513 19.082H151.7zm26.714-19.082c0-5.725-3.339-10.495-10.494-10.495h-6.202v20.99h6.202c6.679 0 10.494-4.77 10.494-10.495M217.532 38.163l-1.908-5.725h-15.266l-1.908 5.725h-10.972L201.789 0h12.403l14.312 38.163h-10.972zM207.991 9.54l-4.771 14.313h9.543L207.991 9.54z"/><path fill="#EB2719" d="M234.705 33.393c0-2.862 2.386-5.247 5.248-5.247s5.247 2.385 5.247 5.247-2.385 5.247-5.247 5.247-5.248-2.385-5.248-5.247"/></svg>