<svg xmlns="http://www.w3.org/2000/svg" width="153.52" height="35" viewBox="0 0 153.52 35"><path fill="#272727" d="M36.953 32.669c-.322-.086-.642-.185-.968-.258-4.13-.935-7.484-4.795-7.97-9.285-.382-3.541.212-6.852 2.639-9.635 3.591-4.119 9.263-4.563 13.463-1.067.164.137.342.257.676.505V2.331h5.283c.013.368.034.736.034 1.104.002 8.255.008 16.51-.003 24.765-.002 1.265-.081 2.529-.124 3.793-1.27.034-2.539.071-3.809.101-.42.01-.841.002-1.35.002v-1.967c-.141-.043-.218-.088-.24-.069-1.527 1.315-3.267 2.2-5.245 2.61h-2.386zm2.199-17.619c-3.402-.035-5.876 2.565-5.913 6.213-.037 3.658 2.457 6.455 5.78 6.483 3.383.029 5.927-2.567 5.966-6.088.042-3.967-2.256-6.571-5.833-6.608M93.709 32.669c-.321-.09-.639-.19-.965-.267-3.94-.909-7.228-4.515-7.858-8.724-.539-3.59-.043-6.979 2.308-9.894 3.565-4.427 9.486-4.952 13.808-1.263.122.104.259.189.549.398V2.331h5.282c.021.31.061.62.061.93.003 9.251-.008 18.502.02 27.753.004.839-.18 1.153-1.072 1.102-1.383-.079-2.771-.021-4.249-.021v-1.963c-.146-.041-.224-.086-.245-.066a11.219 11.219 0 0 1-5.25 2.604h-2.389zm-3.655-11.291c.015.283.024.623.051.961.224 2.776 2.47 5.119 5.165 5.391 2.869.289 5.439-1.434 6.219-4.199a7.876 7.876 0 0 0-.004-4.369c-.867-2.993-4.017-4.759-7.035-3.967-2.729.715-4.384 3.021-4.396 6.183M119.616 32.669c-.525-.108-1.05-.219-1.573-.326-4.406-.908-7.797-4.535-8.359-9.006-.574-4.568.703-8.431 4.492-11.259 5.246-3.915 16.152-2.503 17.691 7.433.167 1.08.163 2.188.246 3.384h-17.215c-.131 1.597 1.131 3.555 2.865 4.341 2.711 1.229 5.315.939 7.685-.868.538-.41.905-.459 1.487-.155 1.178.615 2.401 1.143 3.666 1.734-1.852 2.65-4.314 4.13-7.437 4.544-.276.037-.548.118-.822.179h-2.726zm6.966-14.011c-.529-2.375-2.968-4.048-5.78-4.03-2.758.017-5.202 1.737-5.674 4.03h11.454zM59.451 2.331l-.021 27.925v1.821c-1.735 0-3.425.016-5.115-.032-.123-.003-.331-.464-.335-.716-.03-1.674-.016-3.349-.016-5.022 0-5.108.013-10.217-.016-15.325-.004-.665.198-1.017.795-1.301a40.226 40.226 0 0 0 4.292-2.351h-5.038V2.331h5.454z"/><path fill="#272727" d="M152.578 10.664l-5.439 7.547c-.447.621-.871 1.264-1.357 1.854-.387.47-.391.826-.018 1.33 2.375 3.222 4.715 6.468 7.066 9.707.193.267.376.541.689.994-1.291 0-2.404-.13-3.476.027-2.014.295-3.313-.432-4.34-2.188-.979-1.679-2.259-3.185-3.487-4.877-.438.597-.82 1.107-1.193 1.625-1.18 1.633-2.35 3.274-3.547 4.895-.166.225-.471.486-.717.491-1.838.041-3.678.022-5.654.022.168-.294.257-.484.377-.652 2.387-3.316 4.764-6.642 7.182-9.937.393-.534.369-.874-.014-1.392-2.076-2.806-4.114-5.642-6.163-8.468-.195-.269-.375-.548-.665-.971 2.093 0 4.035-.02 5.974.027.226.006.483.354.658.592 1.243 1.689 2.469 3.391 3.79 5.211l1.529-2.118c.781-1.082 1.547-2.174 2.353-3.237.166-.218.478-.457.726-.462 1.839-.038 3.682-.02 5.726-.02M68.635 10.727v2.033c.686-.483 1.223-.886 1.784-1.251 3.168-2.065 6.962-1.867 9.629.472 1.49 1.308 2.144 3.034 2.174 4.918.082 4.911.037 9.823.039 14.734 0 .11-.031.22-.058.395h-5.195c0-.342.003-.67-.001-.997-.049-3.916-.095-7.832-.155-11.748-.006-.395-.08-.789-.141-1.181-.212-1.349-.812-2.438-2.176-2.897-1.461-.492-2.815-.199-3.961.825-1.357 1.212-1.878 2.82-1.903 4.58a451.66 451.66 0 0 0-.044 10.476c.007.839-.253 1.068-1.058 1.026-1.218-.064-2.441-.03-3.662-.011-.46.006-.665-.136-.664-.63.013-6.813.013-13.628.018-20.441 0-.08.039-.16.075-.303h5.299zM0 32.094c.853-2.22 1.623-4.231 2.397-6.239 2.816-7.304 5.644-14.603 8.436-21.916.253-.662.568-.915 1.284-.882 1.332.06 2.669.033 4.003.009.464-.008.712.141.884.59 3.572 9.322 7.16 18.638 10.743 27.957.039.102.06.209.12.425-.431.021-.813.053-1.195.055-1.249.007-2.499-.022-3.748.015-.543.015-.797-.177-.98-.691-.56-1.576-1.195-3.126-1.768-4.699-.161-.441-.389-.615-.865-.613-3.549.017-7.098.019-10.648-.003-.493-.003-.692.204-.852.625-.596 1.564-1.243 3.109-1.825 4.679-.185.5-.423.716-.979.703-1.606-.037-3.214-.015-5.007-.015m10.109-11.378h7.781l-3.877-9.988-3.904 9.988"/></svg>