<svg xmlns="http://www.w3.org/2000/svg" width="208.928" height="35" viewBox="0 0 208.928 35"><path fill="#272727" d="M100.714 2.956l5.479 1.708 2.433-1.493v9.94h-1.266c-.508-1.332-.917-2.678-1.519-3.933-1.308-2.728-3.356-4.515-6.534-4.615-3.126-.098-5.693 1.122-7.203 3.845-.967 1.743-1.717 3.735-2.011 5.699-.673 4.506-.386 8.949 2.458 12.826 2.552 3.479 7.479 4.57 11.227 2.444.495-.28.971-.97 1.05-1.528.189-1.341.182-2.716.174-4.076-.013-2.371-.577-2.924-2.935-3.334-.679-.118-1.988.258-1.596-1.369h11.774c.46.982-.111 1.199-.866 1.363-2.301.498-2.602.873-2.602 3.248-.002 1.654.071 3.311.035 4.965-.009.402-.211 1.039-.498 1.162-4.371 1.869-8.891 3.024-13.603 1.599-5.759-1.743-8.77-5.964-9.409-11.759-.604-5.475.824-10.46 5.479-13.811 1.931-1.389 4.46-1.945 6.718-2.881h3.215zM10.268 3.21l15.681 10.513c-.476.747-.933 1.47-1.396 2.188-3.081 4.78-6.174 9.555-9.234 14.348-.451.705-.942 1.117-1.83 1.153-3.161.132-6.317.361-9.479.472-.383.013-.999-.389-1.143-.744-.994-2.473-1.91-4.98-2.796-7.494-.126-.357-.081-.885.095-1.221C3.492 16.053 6.848 9.7 10.268 3.21m-.669 23.069c-.009-1.597-1.318-2.917-2.855-2.88-1.495.037-2.851 1.475-2.805 2.979.044 1.435 1.458 2.846 2.823 2.816a2.913 2.913 0 0 0 2.837-2.915M178.765 31.457c-1.216.385-1.794-.06-2.385-.865-5.266-7.174-10.577-14.313-16.024-21.664-.066.486-.141.773-.139 1.06.029 5.21.018 10.421.125 15.63.057 2.715.878 3.582 3.512 4.218.727.177 1.631.183 1.209 1.429h-11.462c.494-.604.724-1.17 1.103-1.301 3.393-1.164 3.574-1.222 3.657-4.775.119-5.11.113-10.228.063-15.339-.027-2.712-1.116-3.883-4.04-4.783-.96-.295-.96-.295-.868-1.455 2.412 0 4.839-.044 7.262.043.41.015.893.526 1.187.922 4.719 6.369 9.413 12.757 14.115 19.14.199.271.422.526.77.958.068-.469.148-.764.148-1.059.008-4.433.004-8.864.002-13.296 0-.146-.002-.293-.006-.439-.092-3.228-.749-4.096-3.896-4.811-.844-.191-1.259-.411-.843-1.457 3.443 0 6.94-.011 10.437.025.217.003.635.42.602.563-.065.292-.325.65-.596.763-.529.221-1.126.276-1.687.431-1.163.32-1.804 1.134-1.946 2.292-.15 1.205-.279 2.421-.284 3.633-.028 6.185-.014 12.371-.014 18.556v1.581zM193.548 16.112c5.181.857 6.627.054 7.873-4.333h1.199v11.037c-.605-.408-1.252-.604-1.327-.932-.993-4.302-2.503-4.144-5.655-4.147h-1.983c0 3.56-.095 6.954.089 10.333.032.601 1.188 1.572 1.883 1.627 2.314.182 4.655.058 6.985-.021 1.268-.043 2.179-.775 2.787-1.857.666-1.184 1.252-2.414 1.954-3.576.259-.428.747-.719 1.131-1.071l.444.274-.437 7.765H185.11c.545-.552.799-.931 1.153-1.127.321-.179.75-.187 1.137-.222 1.351-.125 2.039-.916 2.044-2.207.027-6.67.04-13.341-.004-20.012-.011-1.616-.676-2.179-2.946-2.578-.894-.157-1.231-.419-.887-1.377h21.155v6.429c-.11.106-.218.213-.327.32-.403-.363-.973-.648-1.184-1.1-1.357-2.915-3.351-4.681-6.81-4.344-1.582.155-3.191.027-4.894.027v11.092zM84.271 31.263H73.123c-.314-.693-.24-1.078.67-1.217 3.866-.588 2.813-1.291 1.952-3.758-.525-1.507-.764-3.574-1.854-4.299-1.164-.771-3.181-.271-4.825-.302-1.266-.023-2.539-.086-3.793.036-.49.049-1.186.455-1.355.873-.617 1.521-1.016 3.13-1.565 4.682-.45 1.273.082 1.956 1.236 2.316.601.188 1.251.24 1.821.486.368.159.633.559.943.85l-.261.332H55.573c.482-.592.718-1.179 1.055-1.243 2.187-.423 3.272-1.906 4.016-3.82a3333.745 3333.745 0 0 1 8.528-21.798c.185-.466.762-1.061 1.168-1.069.383-.008.964.605 1.146 1.069a2412.713 2412.713 0 0 1 8.623 22.23c.651 1.705 1.599 2.949 3.483 3.363.366.081.631.627.942.959l-.263.31M73.385 20.095c-1.451-3.715-2.811-7.197-4.309-11.037l-4.218 11.037h8.527zM56.217 3.735v7.769c-.68-.576-1.137-.851-1.438-1.245-.314-.417-.465-.955-.713-1.427-1.879-3.57-3.649-4.406-7.836-3.634-.021.448-.06.923-.061 1.398-.004 6.623-.006 13.246-.002 19.869.002 2.411.464 2.897 2.856 3.41.677.146 1.966-.204 1.598 1.381H37.803c-.096-.116-.189-.233-.286-.351.326-.28.615-.737.984-.816 3.692-.785 3.696-.768 3.694-4.507V5.198c-4.947-.524-6.016-.228-8.396 4.695-.347.717-.504 1.546-1.67 1.057V3.735h24.088zM136.642 23.321l-.608 7.927h-21.359l-.331-.281c.313-.308.579-.8.946-.894 2.772-.707 2.904-.842 2.904-3.728l-.001-17.52c0-2.646-.344-3.065-2.838-3.81-.415-.125-.729-.585-1.091-.89l.269-.419h11.388c.282.741.267 1.161-.76 1.321-2.699.418-2.98.806-2.981 3.494-.003 5.645-.002 11.29.001 16.936.001.533.004 1.07.044 1.604.172 2.31.595 2.709 2.948 2.832l.292.016c5.87.268 6.767-.254 9.382-5.536.351-.71.559-1.522 1.795-1.052M151.118 31.259h-12.21l-.252-.333c.317-.28.592-.663.962-.817.435-.182.95-.179 1.433-.233 1.262-.144 1.974-.876 1.979-2.109.028-6.76.02-13.521-.001-20.282-.003-.958-.469-1.665-1.454-1.943-.56-.157-1.136-.283-1.663-.517-.404-.181-.744-.508-1.112-.77.444-.216.882-.605 1.332-.619 2.138-.065 4.279-.029 6.42-.029h4.552c.266.848.241 1.293-.776 1.407-3.026.338-3.277.671-3.277 3.76 0 5.885-.001 11.771.001 17.656.001 2.641.262 2.924 2.858 3.498.616.135 1.754-.031 1.208 1.331"/></svg>