<?xml version="1.0" encoding="utf-8"?>
<!-- Generator: Adobe Illustrator 16.0.0, SVG Export Plug-In . SVG Version: 6.00 Build 0)  -->
<!DOCTYPE svg PUBLIC "-//W3C//DTD SVG 1.1//EN" "http://www.w3.org/Graphics/SVG/1.1/DTD/svg11.dtd">
<svg version="1.1" id="Слой_1" xmlns="http://www.w3.org/2000/svg" xmlns:xlink="http://www.w3.org/1999/xlink" x="0px" y="0px"
	 width="180.908px" height="35px" viewBox="0 0 180.908 35" enable-background="new 0 0 180.908 35" xml:space="preserve">
<path fill="#272727" d="M147.993,31.098c-0.061-0.138-0.128-0.398-0.182-0.396c-1.691,0.088-2.254-1.324-2.964-2.371
	c-1.307-1.93-2.407-3.996-3.67-5.957c-0.207-0.326-0.793-0.566-1.209-0.573c-3.046-0.048-6.092-0.025-9.293-0.025v8.774h-3.444V3.98
	h5.385c2.26,0,4.521-0.053,6.779,0.013c2.994,0.087,5.903,0.662,7.86,3.149c0.926,1.177,1.711,2.71,1.906,4.169
	c0.427,3.191-0.078,6.264-2.897,8.422c-0.661,0.506-1.382,0.932-2.119,1.423c1.956,3.074,3.871,6.075,5.772,9.087
	c0.16,0.254,0.227,0.568,0.337,0.854H147.993z M130.694,19.022c3.641,0,7.188,0.003,10.736-0.007
	c0.19-0.001,0.388-0.093,0.571-0.168c2.752-1.13,3.789-3.285,3.738-6.141c-0.047-2.6-2.205-5.47-4.744-5.633
	c-3.402-0.219-6.83-0.054-10.302-0.054V19.022z"/>
<path fill="#272727" d="M0,3.962c3.679,0.006,7.362-0.101,11.033,0.062c2.109,0.092,4.313,0.31,6.267,1.033
	c2.117,0.782,3.859,2.361,4.317,4.812c0.247,1.321,0.487,2.675,0.463,4.01c-0.053,2.946-1.545,5.11-4.029,6.626
	c-0.342,0.208-0.672,0.43-1.049,0.672c2.054,3.15,4.064,6.226,6.057,9.313c0.099,0.151,0.042,0.403,0.058,0.608h-2.764
	c-0.031-0.147-0.013-0.351-0.103-0.435c-0.724-0.679-1.611-1.231-2.177-2.02c-1.382-1.925-2.708-3.904-3.868-5.969
	c-0.441-0.785-0.913-0.896-1.632-0.893c-1.711,0.012-3.423,0.004-5.134,0.004H3.485v8.81H0V3.962z M3.563,19.04
	c3.39,0,6.649-0.029,9.91,0.014c1.291,0.017,2.321-0.521,3.235-1.303c1.614-1.377,2.535-4.621,1.819-6.409
	c-1.076-2.69-2.901-4.3-5.836-4.366c-1.172-0.027-2.344-0.015-3.516-0.017c-1.864-0.002-3.728,0-5.613,0V19.04z"/>
<path fill="#272727" d="M180.908,19.54c-0.167,0.145-0.472,0.283-0.479,0.436c-0.105,2.316-1.025,4.279-2.44,6.076
	c-1.731,2.197-3.894,3.789-6.689,4.031c-4.427,0.384-8.876,0.507-13.409,0.744V3.962c2.58,0,5.164-0.065,7.743,0.02
	c2.149,0.071,4.364,0.036,6.424,0.551c3.55,0.888,6.197,3.166,7.783,6.493c0.417,0.875,0.371,1.966,0.587,2.946
	c0.047,0.206,0.315,0.363,0.48,0.543V19.54z M161.364,27.893c2.422,0,4.798,0.104,7.158-0.044c1.174-0.073,2.398-0.441,3.461-0.962
	c3.477-1.703,4.958-4.815,5.329-8.455c0.153-1.504-0.2-3.074-0.428-4.599c-0.489-3.268-2.494-5.324-5.524-6.339
	c-1.477-0.496-3.058-0.78-4.612-0.916c-1.768-0.154-3.558-0.036-5.384-0.036V27.893z"/>
<path fill="#272727" d="M38.443,31.098c-0.272-0.16-0.537-0.442-0.819-0.462c-3.993-0.29-6.475-2.602-7.869-6.12
	c-0.495-1.251-0.547-2.731-0.563-4.11c-0.06-5.431-0.024-10.862-0.024-16.369h3.496c0,0.452-0.001,0.859,0.001,1.266
	c0.019,5.355,0.03,10.711,0.06,16.065c0.021,3.908,2.757,6.636,6.66,6.725c2.058,0.047,3.994-0.059,5.761-1.415
	c1.655-1.272,2.507-2.925,2.556-4.856c0.123-4.894,0.049-9.791,0.057-14.687c0.005-2.224,1.171-3.295,3.448-3.091
	c0.017,0.353,0.049,0.718,0.05,1.083c0.002,5.146-0.054,10.295,0.02,15.44c0.06,4.185-1.604,7.334-5.329,9.247
	c-0.968,0.497-2.165,0.56-3.265,0.782c-0.393,0.079-0.707,0.086-0.217,0.501H38.443z"/>
<path fill="#272727" d="M73.916,3.962c0.91,0,1.677,0.094,2.409-0.024c0.903-0.146,1.298,0.441,1.489,1.033
	c0.446,1.385,0.707,2.826,1.089,4.233c0.405,1.493,0.866,2.971,1.293,4.459c0.409,1.433,0.807,2.87,1.212,4.304
	c0.479,1.697,1.017,3.38,1.423,5.095c0.327,1.383,0.495,2.803,0.794,4.558c0.333-0.738,0.623-1.204,0.758-1.711
	c0.689-2.589,1.345-5.185,1.999-7.782c0.7-2.779,1.347-5.572,2.095-8.337c0.392-1.447,0.849-2.894,1.463-4.257
	c0.686-1.516,1.94-1.925,3.785-1.431c-2.596,8.828-5.19,17.653-7.789,26.493c-1.322,0-2.494,0.035-3.659-0.022
	c-0.292-0.016-0.763-0.273-0.823-0.506c-0.731-2.776-1.36-5.582-2.101-8.355c-0.583-2.186-1.336-4.324-1.913-6.51
	c-0.596-2.267-1.069-4.567-1.604-6.85c-0.013-0.055-0.121-0.088-0.291-0.202c-0.396,1.541-0.78,3.038-1.164,4.535
	c-0.42,1.639-0.831,3.28-1.262,4.917c-0.409,1.551-0.839,3.099-1.258,4.649c-0.391,1.445-0.775,2.895-1.169,4.34
	c-0.278,1.023-0.5,2.068-0.881,3.053c-0.151,0.39-0.629,0.838-1.022,0.91c-0.769,0.145-1.604-0.068-2.373,0.073
	c-0.929,0.17-1.332-0.437-1.506-1.019c-0.769-2.573-1.382-5.193-2.13-7.773c-0.732-2.525-1.588-5.017-2.338-7.538
	c-0.591-1.979-1.091-3.986-1.659-5.973c-0.4-1.398-0.849-2.783-1.308-4.281h3.683c2.144,7.772,4.275,15.501,6.399,23.202
	C69.662,19.535,71.778,11.786,73.916,3.962"/>
<path fill="#272727" d="M106.172,4.009h4.206c3.546,8.855,7.074,17.666,10.645,26.584c-1.046,0-2.077,0.032-3.105-0.008
	c-1.315-0.051-0.929-1.353-1.248-2.016c-0.903-1.877-1.453-3.921-2.202-5.877c-0.107-0.281-0.541-0.623-0.824-0.623
	c-3.763-0.008-7.526,0.041-11.291,0.079c-0.074,0.001-0.149,0.067-0.089,0.038c-0.861,2.227-1.681,4.35-2.505,6.473
	c-0.072,0.188-0.225,0.358-0.245,0.549c-0.128,1.142-0.771,1.517-1.867,1.402c-0.694-0.074-1.402-0.014-2.294-0.014
	C99,21.633,102.578,12.839,106.172,4.009 M113.077,19.452c-1.62-4.284-3.205-8.478-4.84-12.798
	c-1.619,4.278-3.214,8.488-4.847,12.798H113.077z"/>
</svg>